<?xml version="1.0" encoding="utf-8"?>
<!-- Generator: Adobe Illustrator 18.0.0, SVG Export Plug-In . SVG Version: 6.00 Build 0)  -->
<!DOCTYPE svg PUBLIC "-//W3C//DTD SVG 1.1//EN" "http://www.w3.org/Graphics/SVG/1.1/DTD/svg11.dtd">
<svg version="1.1" id="Layer_1" xmlns="http://www.w3.org/2000/svg" xmlns:xlink="http://www.w3.org/1999/xlink" x="0px" y="0px"
	 viewBox="0 0 20 20" enable-background="new 0 0 20 20" xml:space="preserve">
<g>
	<path fill="#A6CE38" d="M-28.9,1c-2.4,0-4.7,0.9-6.4,2.6c-1.7,1.7-2.6,4-2.6,6.4s0.9,4.7,2.6,6.4c1.7,1.7,4,2.6,6.4,2.6
		s4.7-0.9,6.4-2.6c1.7-1.7,2.6-4,2.6-6.4s-0.9-4.7-2.6-6.4C-24.2,1.9-26.5,1-28.9,1z M-23.3,15.6c-1.5,1.5-3.5,2.3-5.6,2.3
		c-2.1,0-4.1-0.8-5.6-2.3c-1.5-1.5-2.3-3.5-2.3-5.6s0.8-4.1,2.3-5.6c1.5-1.5,3.5-2.3,5.6-2.3c2.1,0,4.1,0.8,5.6,2.3
		C-21.9,5.9-21,7.9-21,10S-21.9,14.1-23.3,15.6z"/>
	<path fill="#A6CE38" d="M-26,9.6L-30,6.5c-0.2-0.1-0.4-0.2-0.6-0.1c-0.2,0.1-0.3,0.3-0.3,0.5v6.2c0,0.2,0.1,0.4,0.3,0.5
		c0.1,0,0.2,0.1,0.2,0.1c0.1,0,0.2,0,0.3-0.1l3.9-3.1c0.1-0.1,0.2-0.3,0.2-0.4S-25.9,9.7-26,9.6z M-29.8,11.9V8.1l2.5,1.9
		L-29.8,11.9z"/>
</g>
<g>
	<path fill="#B3B3B3" d="M47.5,6.9c-0.3,0-0.6,0.3-0.6,0.6v5.1c0,0.3,0.3,0.6,0.6,0.6s0.6-0.3,0.6-0.6V7.5C48,7.2,47.8,6.9,47.5,6.9
		z"/>
	<path fill="#B3B3B3" d="M52,6.9c-0.3,0-0.6,0.3-0.6,0.6v5.1c0,0.3,0.3,0.6,0.6,0.6s0.6-0.3,0.6-0.6V7.5C52.5,7.2,52.3,6.9,52,6.9z"
		/>
	<path fill="#B3B3B3" d="M49.7,1c-2.4,0-4.7,0.9-6.4,2.6c-1.7,1.7-2.6,4-2.6,6.4s0.9,4.7,2.6,6.4c1.7,1.7,4,2.6,6.4,2.6
		c2.4,0,4.7-0.9,6.4-2.6c1.7-1.7,2.6-4,2.6-6.4s-0.9-4.7-2.6-6.4C54.4,1.9,52.1,1,49.7,1z M55.3,15.6c-1.5,1.5-3.5,2.3-5.6,2.3
		c-2.1,0-4.1-0.8-5.6-2.3c-1.5-1.5-2.3-3.5-2.3-5.6s0.8-4.1,2.3-5.6c1.5-1.5,3.5-2.3,5.6-2.3c2.1,0,4.1,0.8,5.6,2.3
		c1.5,1.5,2.3,3.5,2.3,5.6S56.8,14.1,55.3,15.6z"/>
</g>
<g>
	<path fill="#B3B3B3" d="M10.4,1C8,1,5.7,1.9,4,3.6c-1.7,1.7-2.6,4-2.6,6.4s0.9,4.7,2.6,6.4c1.7,1.7,4,2.6,6.4,2.6
		c2.4,0,4.7-0.9,6.4-2.6c1.7-1.7,2.6-4,2.6-6.4s-0.9-4.7-2.6-6.4C15.1,1.9,12.8,1,10.4,1z M16,15.6c-1.5,1.5-3.5,2.3-5.6,2.3
		s-4.1-0.8-5.6-2.3c-1.5-1.5-2.3-3.5-2.3-5.6s0.8-4.1,2.3-5.6c1.5-1.5,3.5-2.3,5.6-2.3s4.1,0.8,5.6,2.3c1.5,1.5,2.3,3.5,2.3,5.6
		S17.5,14.1,16,15.6z"/>
	<path fill="#B3B3B3" d="M15.8,9.6l-3.9-3.1c-0.2-0.1-0.4-0.2-0.6-0.1C11.1,6.5,11,6.7,11,6.9v6.2c0,0.2,0.1,0.4,0.3,0.5
		c0.1,0,0.2,0.1,0.2,0.1c0.1,0,0.2,0,0.3-0.1l3.9-3.1c0.1-0.1,0.2-0.3,0.2-0.4S15.9,9.7,15.8,9.6z M12.1,11.9V8.1l2.5,1.9L12.1,11.9
		z"/>
	<path fill="#B3B3B3" d="M10.2,9.6L6.2,6.5C6.1,6.3,5.8,6.3,5.7,6.4C5.5,6.5,5.3,6.7,5.3,6.9v6.2c0,0.2,0.1,0.4,0.3,0.5
		c0.1,0,0.2,0.1,0.2,0.1c0.1,0,0.2,0,0.3-0.1l3.9-3.1c0.1-0.1,0.2-0.3,0.2-0.4S10.3,9.7,10.2,9.6z M6.5,11.9V8.1L8.9,10L6.5,11.9z"
		/>
</g>
<g>
	<path fill="#B3B3B3" d="M-68.2,19c2.4,0,4.7-0.9,6.4-2.6c1.7-1.7,2.6-4,2.6-6.4s-0.9-4.7-2.6-6.4c-1.7-1.7-4-2.6-6.4-2.6
		c-2.4,0-4.7,0.9-6.4,2.6c-1.7,1.7-2.6,4-2.6,6.4s0.9,4.7,2.6,6.4C-72.9,18.1-70.6,19-68.2,19z M-73.8,4.4c1.5-1.5,3.5-2.3,5.6-2.3
		c2.1,0,4.1,0.8,5.6,2.3c1.5,1.5,2.3,3.5,2.3,5.6s-0.8,4.1-2.3,5.6c-1.5,1.5-3.5,2.3-5.6,2.3c-2.1,0-4.1-0.8-5.6-2.3
		c-1.5-1.5-2.3-3.5-2.3-5.6S-75.3,5.9-73.8,4.4z"/>
	<path fill="#B3B3B3" d="M-73.6,10.4l3.9,3.1c0.2,0.1,0.4,0.2,0.6,0.1c0.2-0.1,0.3-0.3,0.3-0.5V6.9c0-0.2-0.1-0.4-0.3-0.5
		c-0.1,0-0.2-0.1-0.2-0.1c-0.1,0-0.2,0-0.3,0.1l-3.9,3.1c-0.1,0.1-0.2,0.3-0.2,0.4S-73.8,10.3-73.6,10.4z M-69.9,8.1v3.9l-2.5-1.9
		L-69.9,8.1z"/>
	<path fill="#B3B3B3" d="M-68,10.4l3.9,3.1c0.2,0.1,0.4,0.2,0.6,0.1c0.2-0.1,0.3-0.3,0.3-0.5V6.9c0-0.2-0.1-0.4-0.3-0.5
		c-0.1,0-0.2-0.1-0.2-0.1c-0.1,0-0.2,0-0.3,0.1L-68,9.6c-0.1,0.1-0.2,0.3-0.2,0.4S-68.1,10.3-68,10.4z M-64.3,8.1v3.9l-2.5-1.9
		L-64.3,8.1z"/>
</g>
<g>
</g>
<g>
</g>
<g>
</g>
<g>
</g>
<g>
</g>
<g>
</g>
<g>
</g>
<g>
</g>
<g>
</g>
<g>
</g>
<g>
</g>
<g>
</g>
<g>
</g>
<g>
</g>
<g>
</g>
</svg>
