<?xml version="1.0" encoding="utf-8"?>
<!-- Generator: Adobe Illustrator 18.0.0, SVG Export Plug-In . SVG Version: 6.00 Build 0)  -->
<!DOCTYPE svg PUBLIC "-//W3C//DTD SVG 1.1//EN" "http://www.w3.org/Graphics/SVG/1.1/DTD/svg11.dtd">
<svg version="1.1" id="Layer_1" xmlns="http://www.w3.org/2000/svg" xmlns:xlink="http://www.w3.org/1999/xlink" x="0px" y="0px"
	 viewBox="0 0 20 20" enable-background="new 0 0 20 20" xml:space="preserve">
<g>
	<path fill="#A6CE38" d="M-68.2,1c-2.4,0-4.7,0.9-6.4,2.6c-1.7,1.7-2.6,4-2.6,6.4s0.9,4.7,2.6,6.4c1.7,1.7,4,2.6,6.4,2.6
		s4.7-0.9,6.4-2.6c1.7-1.7,2.6-4,2.6-6.4s-0.9-4.7-2.6-6.4C-63.6,1.9-65.8,1-68.2,1z M-62.7,15.6c-1.5,1.5-3.5,2.3-5.6,2.3
		c-2.1,0-4.1-0.8-5.6-2.3c-1.5-1.5-2.3-3.5-2.3-5.6s0.8-4.1,2.3-5.6c1.5-1.5,3.5-2.3,5.6-2.3c2.1,0,4.1,0.8,5.6,2.3
		c1.5,1.5,2.3,3.5,2.3,5.6S-61.2,14.1-62.7,15.6z"/>
	<path fill="#A6CE38" d="M-65.3,9.6l-3.9-3.1c-0.2-0.1-0.4-0.2-0.6-0.1c-0.2,0.1-0.3,0.3-0.3,0.5v6.2c0,0.2,0.1,0.4,0.3,0.5
		c0.1,0,0.2,0.1,0.2,0.1c0.1,0,0.2,0,0.3-0.1l3.9-3.1c0.1-0.1,0.2-0.3,0.2-0.4S-65.2,9.7-65.3,9.6z M-69.1,11.9V8.1l2.5,1.9
		L-69.1,11.9z"/>
</g>
<g>
	<path fill="#B3B3B3" d="M8.1,6.9c-0.3,0-0.6,0.3-0.6,0.6v5.1c0,0.3,0.3,0.6,0.6,0.6c0.3,0,0.6-0.3,0.6-0.6V7.5
		C8.7,7.2,8.5,6.9,8.1,6.9z"/>
	<path fill="#B3B3B3" d="M12.6,6.9c-0.3,0-0.6,0.3-0.6,0.6v5.1c0,0.3,0.3,0.6,0.6,0.6s0.6-0.3,0.6-0.6V7.5C13.2,7.2,13,6.9,12.6,6.9
		z"/>
	<path fill="#B3B3B3" d="M10.4,1C8,1,5.7,1.9,4,3.6c-1.7,1.7-2.6,4-2.6,6.4s0.9,4.7,2.6,6.4c1.7,1.7,4,2.6,6.4,2.6s4.7-0.9,6.4-2.6
		c1.7-1.7,2.6-4,2.6-6.4s-0.9-4.7-2.6-6.4C15.1,1.9,12.8,1,10.4,1z M16,15.6c-1.5,1.5-3.5,2.3-5.6,2.3c-2.1,0-4.1-0.8-5.6-2.3
		c-1.5-1.5-2.3-3.5-2.3-5.6s0.8-4.1,2.3-5.6c1.5-1.5,3.5-2.3,5.6-2.3c2.1,0,4.1,0.8,5.6,2.3c1.5,1.5,2.3,3.5,2.3,5.6
		S17.5,14.1,16,15.6z"/>
</g>
<g>
	<path fill="#B3B3B3" d="M-28.9,1c-2.4,0-4.7,0.9-6.4,2.6c-1.7,1.7-2.6,4-2.6,6.4s0.9,4.7,2.6,6.4c1.7,1.7,4,2.6,6.4,2.6
		c2.4,0,4.7-0.9,6.4-2.6c1.7-1.7,2.6-4,2.6-6.4s-0.9-4.7-2.6-6.4C-24.2,1.9-26.5,1-28.9,1z M-23.3,15.6c-1.5,1.5-3.5,2.3-5.6,2.3
		s-4.1-0.8-5.6-2.3c-1.5-1.5-2.3-3.5-2.3-5.6s0.8-4.1,2.3-5.6c1.5-1.5,3.5-2.3,5.6-2.3s4.1,0.8,5.6,2.3C-21.9,5.9-21,7.9-21,10
		S-21.9,14.1-23.3,15.6z"/>
	<path fill="#B3B3B3" d="M-23.5,9.6l-3.9-3.1c-0.2-0.1-0.4-0.2-0.6-0.1c-0.2,0.1-0.3,0.3-0.3,0.5v6.2c0,0.2,0.1,0.4,0.3,0.5
		c0.1,0,0.2,0.1,0.2,0.1c0.1,0,0.2,0,0.3-0.1l3.9-3.1c0.1-0.1,0.2-0.3,0.2-0.4S-23.4,9.7-23.5,9.6z M-27.2,11.9V8.1l2.5,1.9
		L-27.2,11.9z"/>
	<path fill="#B3B3B3" d="M-29.1,9.6l-3.9-3.1c-0.2-0.1-0.4-0.2-0.6-0.1C-33.9,6.5-34,6.7-34,6.9v6.2c0,0.2,0.1,0.4,0.3,0.5
		c0.1,0,0.2,0.1,0.2,0.1c0.1,0,0.2,0,0.3-0.1l3.9-3.1c0.1-0.1,0.2-0.3,0.2-0.4S-29,9.7-29.1,9.6z M-32.9,11.9V8.1l2.5,1.9
		L-32.9,11.9z"/>
</g>
<g>
	<path fill="#B3B3B3" d="M-107.5,19c2.4,0,4.7-0.9,6.4-2.6c1.7-1.7,2.6-4,2.6-6.4s-0.9-4.7-2.6-6.4c-1.7-1.7-4-2.6-6.4-2.6
		c-2.4,0-4.7,0.9-6.4,2.6c-1.7,1.7-2.6,4-2.6,6.4s0.9,4.7,2.6,6.4C-112.2,18.1-109.9,19-107.5,19z M-113.1,4.4
		c1.5-1.5,3.5-2.3,5.6-2.3c2.1,0,4.1,0.8,5.6,2.3c1.5,1.5,2.3,3.5,2.3,5.6s-0.8,4.1-2.3,5.6c-1.5,1.5-3.5,2.3-5.6,2.3
		c-2.1,0-4.1-0.8-5.6-2.3c-1.5-1.5-2.3-3.5-2.3-5.6S-114.6,5.9-113.1,4.4z"/>
	<path fill="#B3B3B3" d="M-112.9,10.4l3.9,3.1c0.2,0.1,0.4,0.2,0.6,0.1c0.2-0.1,0.3-0.3,0.3-0.5V6.9c0-0.2-0.1-0.4-0.3-0.5
		c-0.1,0-0.2-0.1-0.2-0.1c-0.1,0-0.2,0-0.3,0.1l-3.9,3.1c-0.1,0.1-0.2,0.3-0.2,0.4S-113.1,10.3-112.9,10.4z M-109.2,8.1v3.9
		l-2.5-1.9L-109.2,8.1z"/>
	<path fill="#B3B3B3" d="M-107.3,10.4l3.9,3.1c0.2,0.1,0.4,0.2,0.6,0.1c0.2-0.1,0.3-0.3,0.3-0.5V6.9c0-0.2-0.1-0.4-0.3-0.5
		c-0.1,0-0.2-0.1-0.2-0.1c-0.1,0-0.2,0-0.3,0.1l-3.9,3.1c-0.1,0.1-0.2,0.3-0.2,0.4S-107.5,10.3-107.3,10.4z M-103.6,8.1v3.9
		l-2.5-1.9L-103.6,8.1z"/>
</g>
<g>
</g>
<g>
</g>
<g>
</g>
<g>
</g>
<g>
</g>
<g>
</g>
<g>
</g>
<g>
</g>
<g>
</g>
<g>
</g>
<g>
</g>
<g>
</g>
<g>
</g>
<g>
</g>
<g>
</g>
</svg>
