<?xml version="1.0" encoding="utf-8"?>
<!-- Generator: Adobe Illustrator 18.0.0, SVG Export Plug-In . SVG Version: 6.00 Build 0)  -->
<!DOCTYPE svg PUBLIC "-//W3C//DTD SVG 1.1//EN" "http://www.w3.org/Graphics/SVG/1.1/DTD/svg11.dtd">
<svg version="1.1" id="Layer_1" xmlns="http://www.w3.org/2000/svg" xmlns:xlink="http://www.w3.org/1999/xlink" x="0px" y="0px"
	 viewBox="0 0 50 50" enable-background="new 0 0 50 50" xml:space="preserve">
<path fill="#8CC63F" d="M24.7,2.7c-12.2,0-22,9.8-22,22c0,12.2,9.8,22,22,22c12.2,0,22-9.8,22-22S36.8,2.7,24.7,2.7z M24.7,44.5
	c-10.9,0-19.9-8.9-19.9-19.9S13.7,4.8,24.7,4.8s19.9,8.9,19.9,19.9S35.6,44.5,24.7,44.5z"/>
<polygon fill="#8CC63F" points="25.7,13.7 23.7,13.7 23.7,23.7 13.7,23.7 13.7,25.7 23.7,25.7 23.7,35.7 25.7,35.7 25.7,25.7 
	35.7,25.7 35.7,23.7 25.7,23.7 "/>
<g>
</g>
<g>
</g>
<g>
</g>
<g>
</g>
<g>
</g>
<g>
</g>
<g>
</g>
<g>
</g>
<g>
</g>
<g>
</g>
<g>
</g>
<g>
</g>
<g>
</g>
<g>
</g>
<g>
</g>
</svg>
