<?xml version="1.0" encoding="utf-8"?>
<!-- Generator: Adobe Illustrator 18.0.0, SVG Export Plug-In . SVG Version: 6.00 Build 0)  -->
<!DOCTYPE svg PUBLIC "-//W3C//DTD SVG 1.1//EN" "http://www.w3.org/Graphics/SVG/1.1/DTD/svg11.dtd">
<svg version="1.1" id="Layer_1" xmlns="http://www.w3.org/2000/svg" xmlns:xlink="http://www.w3.org/1999/xlink" x="0px" y="0px"
	 viewBox="0 0 25.8 26.1" enable-background="new 0 0 25.8 26.1" xml:space="preserve">
<g id="Magnifying_x5F_Glass_16_">
	<g>
		<path fill="#525252" d="M21.8,71.5l-6-6c0.6-1,1-2.3,1-3.5c0-3.9-3.2-7.1-7.1-7.1c-3.9,0-7.1,3.2-7.1,7.1s3.2,7.1,7.1,7.1
			c1.3,0,2.5-0.3,3.5-1l6,6c0.4,0.4,0.8,0.5,1.3,0.5c0.5,0,1-0.2,1.3-0.5C22.5,73.4,22.5,72.2,21.8,71.5z M9.7,67.9
			c-3.2,0-5.9-2.6-5.9-5.9c0-3.2,2.6-5.9,5.9-5.9c3.2,0,5.9,2.6,5.9,5.9C15.5,65.2,12.9,67.9,9.7,67.9z M20.9,73.3
			c-0.2,0.2-0.3,0.2-0.4,0.2s-0.3,0-0.4-0.2l-5.8-5.8c0.3-0.3,0.6-0.6,0.9-0.9l5.8,5.8c0.2,0.2,0.2,0.3,0.2,0.4
			C21.1,72.9,21.1,73.1,20.9,73.3z"/>
	</g>
</g>
<g id="Mail_x5F_1_4_">
	<g>
		<path fill="#525252" d="M20.9,4.8c-0.3-0.3-0.7-0.5-1.2-0.5H5.1c-0.5,0-0.9,0.2-1.2,0.5C3.6,5.1,3.4,5.5,3.4,6v14.6
			c0,0.1,0,0.2,0,0.3c0,0,0,0,0,0.1c0,0.1,0,0.2,0.1,0.3c0,0,0,0,0,0c0.1,0.2,0.2,0.4,0.3,0.5C4,21.9,4.1,21.9,4.2,22c0,0,0,0,0,0
			c0.1,0.1,0.2,0.1,0.2,0.1c0,0,0,0,0,0c0.1,0,0.2,0.1,0.3,0.1c0,0,0,0,0.1,0c0.1,0,0.2,0,0.3,0h14.6c0.1,0,0.2,0,0.3,0
			c0,0,0,0,0.1,0c0.1,0,0.2,0,0.3-0.1c0,0,0,0,0,0c0.1,0,0.2-0.1,0.2-0.1c0,0,0,0,0,0c0.1-0.1,0.2-0.1,0.2-0.2
			c0.1-0.1,0.3-0.3,0.3-0.5c0,0,0,0,0,0c0-0.1,0.1-0.2,0.1-0.3c0,0,0,0,0-0.1c0-0.1,0-0.2,0-0.3V6C21.4,5.5,21.3,5.1,20.9,4.8z
			 M4.6,7.8l5.5,5.5l-5.5,5.5V7.8z M20.3,20.8c0,0.1-0.1,0.1-0.1,0.2c-0.1,0.1-0.1,0.1-0.2,0.1c-0.1,0-0.1,0-0.2,0H5.1
			c-0.1,0-0.2,0-0.2,0c-0.1,0-0.1-0.1-0.2-0.1c-0.1-0.1-0.1-0.1-0.1-0.2c0-0.1,0-0.1,0-0.2c0-0.1,0.1-0.3,0.2-0.4l6.1-6.1l0.4,0.4
			c0.3,0.3,0.7,0.5,1.2,0.5c0.5,0,0.9-0.2,1.2-0.5l0.4-0.4l6.1,6.1c0.1,0.1,0.2,0.2,0.2,0.4C20.3,20.7,20.3,20.8,20.3,20.8z
			 M20.3,18.8l-5.5-5.5l5.5-5.5V18.8z M20.2,6.4l-7.3,7.3c-0.2,0.2-0.6,0.2-0.8,0L4.7,6.4C4.6,6.3,4.6,6.1,4.6,6
			c0-0.2,0.1-0.3,0.2-0.4C4.8,5.5,5,5.4,5.1,5.4h14.6c0.1,0,0.3,0.1,0.4,0.2c0.1,0.1,0.2,0.2,0.2,0.4C20.3,6.1,20.3,6.3,20.2,6.4z"
			/>
	</g>
</g>
<g id="Shape_76_8_">
	<g>
		<path fill="#525252" d="M11.4-34.1c2.8,0,5.1-2.8,5.1-6.2c0-3.4-2.3-6.2-5.1-6.2c-1.4,0-2.7,0.7-3.7,1.9c-0.9,1.2-1.4,2.7-1.4,4.3
			C6.3-36.9,8.6-34.1,11.4-34.1z M11.4-45.1c2.1,0,3.7,2.2,3.7,4.8s-1.7,4.8-3.7,4.8c-2.1,0-3.7-2.2-3.7-4.8
			C7.7-43,9.4-45.1,11.4-45.1z M15.7-34.8c-0.4,0-0.7,0.3-0.7,0.7c0,0.4,0.3,0.7,0.7,0.7c2.3,0,4.2,1.9,4.2,4.2
			c0,0.3-0.2,0.5-0.5,0.5H3.5c-0.3,0-0.5-0.2-0.5-0.5c0-2.3,1.9-4.2,4.2-4.2c0.4,0,0.7-0.3,0.7-0.7c0-0.4-0.3-0.7-0.7-0.7
			c-3.1,0-5.6,2.5-5.6,5.6c0,1,0.9,1.9,1.9,1.9h15.9c1,0,1.9-0.9,1.9-1.9C21.3-32.3,18.8-34.8,15.7-34.8z M11.9-47.3
			c0.5-0.3,1-0.4,1.5-0.4c2.1,0,3.7,2.2,3.7,4.8c0,0.5-0.1,0.9-0.2,1.4c-0.1,0.4,0.1,0.7,0.5,0.8c0.1,0,0.1,0,0.2,0
			c0.3,0,0.6-0.2,0.7-0.5c0.1-0.6,0.2-1.1,0.2-1.7c0-3.4-2.3-6.2-5.1-6.2c-0.8,0-1.5,0.2-2.2,0.6c-0.3,0.2-0.4,0.6-0.2,0.9
			C11.2-47.2,11.6-47.1,11.9-47.3z M17.9-37.5c-0.4,0-0.7,0.3-0.7,0.7c0,0.4,0.3,0.7,0.7,0.7c2.3,0,4.1,1.9,4.1,4.3
			c0,0.1,0,0.2,0,0.2c-0.2,0.3,0,0.7,0.3,0.9c0.1,0,0.2,0.1,0.3,0.1c0.3,0,0.5-0.1,0.6-0.4c0.1-0.2,0.2-0.5,0.2-0.8
			C23.3-35,20.9-37.5,17.9-37.5z"/>
	</g>
</g>
<g id="Microphone_4_">
	<g>
		<path fill="#525252" d="M12.4,121c2.6,0,4.8-2.1,4.8-4.8v-6.1c0-2.6-2.1-4.8-4.8-4.8c-2.6,0-4.8,2.1-4.8,4.8v6.1
			C7.7,118.9,9.8,121,12.4,121z M9.7,114.9H9v-1.4h0.7c0.4,0,0.7-0.3,0.7-0.7c0-0.4-0.3-0.7-0.7-0.7H9v-1.4h0.7
			c0.4,0,0.7-0.3,0.7-0.7c0-0.4-0.3-0.7-0.7-0.7H9.1c0.3-1.5,1.7-2.7,3.3-2.7c1.6,0,3,1.2,3.3,2.7h-0.6c-0.4,0-0.7,0.3-0.7,0.7
			c0,0.4,0.3,0.7,0.7,0.7h0.7v1.4h-0.7c-0.4,0-0.7,0.3-0.7,0.7c0,0.4,0.3,0.7,0.7,0.7h0.7v1.4h-0.7c-0.4,0-0.7,0.3-0.7,0.7
			c0,0.4,0.3,0.7,0.7,0.7h0.7c0,1.9-1.5,3.4-3.4,3.4c-1.9,0-3.4-1.5-3.4-3.4h0.7c0.4,0,0.7-0.3,0.7-0.7
			C10.4,115.2,10.1,114.9,9.7,114.9z M12.4,118.3c0.4,0,0.7-0.3,0.7-0.7v-8.8c0-0.4-0.3-0.7-0.7-0.7c-0.4,0-0.7,0.3-0.7,0.7v8.8
			C11.8,118,12.1,118.3,12.4,118.3z M17.2,125.8h-2.7v-2.3c3.1-0.9,5.4-3.8,5.4-7.2c0-0.4-0.3-0.7-0.7-0.7s-0.7,0.3-0.7,0.7
			c0,3.4-2.7,6.1-6.1,6.1c-3.4,0-6.1-2.7-6.1-6.1c0-0.4-0.3-0.7-0.7-0.7S5,115.9,5,116.3c0,3.4,2.3,6.3,5.4,7.2v2.3H7.7
			c-0.4,0-0.7,0.3-0.7,0.7c0,0.4,0.3,0.7,0.7,0.7h9.5c0.4,0,0.7-0.3,0.7-0.7C17.9,126.1,17.6,125.8,17.2,125.8z M13.1,125.8h-1.4
			v-2.1c0.2,0,0.4,0,0.7,0c0.2,0,0.5,0,0.7,0V125.8z"/>
	</g>
</g>
<g id="Music_x5F_Note_8_">
	<g>
		<path fill="#525252" d="M20.3-203.4c-0.2-0.1-0.4-0.2-0.6-0.1l-9.5,2.7c-0.3,0.1-0.5,0.3-0.5,0.7v12.2c-0.6-0.4-1.3-0.7-2-0.7
			c-1.9,0-3.4,1.5-3.4,3.4s1.5,3.4,3.4,3.4s3.4-1.5,3.4-3.4v-11.7l8.1-2.3v8.6c-0.6-0.4-1.3-0.7-2-0.7c-1.9,0-3.4,1.5-3.4,3.4
			s1.5,3.4,3.4,3.4s3.4-1.5,3.4-3.4v-14.9C20.6-203,20.5-203.2,20.3-203.4z M7.7-183.1c-1.1,0-2-0.9-2-2s0.9-2,2-2s2,0.9,2,2
			S8.8-183.1,7.7-183.1z M17.2-185.9c-1.1,0-2-0.9-2-2s0.9-2,2-2s2,0.9,2,2S18.3-185.9,17.2-185.9z M19.2-200.6l-8.1,2.3v-1.3
			l8.1-2.3V-200.6z"/>
	</g>
</g>
<g id="Flame_4_">
	<g>
		<path fill="#525252" d="M10.4-100.5c-0.3-0.1-0.6,0-0.8,0.2c-0.2,0.2-0.2,0.6,0,0.8c0,0,3,4.5-0.6,9c-4.1,5-1.9,9.5,0,11.4
			c0.1,0.1,0.3,0.2,0.5,0.2c0,0,0,0,0,0c0.4,0,0.7-0.3,0.7-0.7c0-0.1,0-0.2-0.1-0.3c-0.1-0.4-0.2-1.6-0.2-2.3c0-1.4,0.6-2.3,1.2-3
			c0,0.9,0.2,1.9,1,2.8c0.5,0.6,0.6,1.5,0.3,2.5c-0.1,0.3,0,0.6,0.2,0.8c0.2,0.2,0.6,0.2,0.8,0c1.2-0.9,5-4.3,5-9.7
			C18.2-97.4,10.5-100.5,10.4-100.5z M13.8-81.2c-0.1-0.7-0.3-1.3-0.8-1.9c-1.3-1.6-0.3-3.2-0.2-3.2c0.2-0.2,0.2-0.6,0-0.8
			c-0.1-0.2-0.3-0.3-0.5-0.3c-0.1,0-0.2,0-0.2,0c-0.1,0.1-3.4,1.4-3.5,5.2c-0.8-2-0.8-4.7,1.5-7.4c2.7-3.3,2.3-6.7,1.6-8.7
			c2.1,1.3,5.3,4.3,5.3,9.7C16.9-85.2,15.1-82.7,13.8-81.2z"/>
	</g>
</g>
<g id="Shape_76_5_">
	<g>
		<path fill="#525252" d="M12.4-138.4c2.8,0,5.1-2.8,5.1-6.2c0-3.4-2.3-6.2-5.1-6.2c-1.4,0-2.7,0.7-3.7,1.9
			c-0.9,1.2-1.4,2.7-1.4,4.3C7.4-141.1,9.6-138.4,12.4-138.4z M12.4-149.4c2.1,0,3.7,2.2,3.7,4.8c0,2.7-1.7,4.8-3.7,4.8
			c-2.1,0-3.7-2.2-3.7-4.8C8.7-147.2,10.4-149.4,12.4-149.4z M16.7-139c-0.4,0-0.7,0.3-0.7,0.7c0,0.4,0.3,0.7,0.7,0.7
			c2.3,0,4.2,1.9,4.2,4.2c0,0.3-0.2,0.5-0.5,0.5H4.5c-0.3,0-0.5-0.2-0.5-0.5c0-2.3,1.9-4.2,4.2-4.2c0.4,0,0.7-0.3,0.7-0.7
			c0-0.4-0.3-0.7-0.7-0.7c-3.1,0-5.6,2.5-5.6,5.6c0,1,0.9,1.9,1.9,1.9h15.9c1,0,1.9-0.9,1.9-1.9C22.3-136.5,19.8-139,16.7-139z"/>
	</g>
</g>
<g id="Setup_3_">
	<g>
		<path fill="#525252" d="M7,219.4v-8.9c0-1.1-0.9-2-2-2s-2,0.9-2,2v8.9c-0.8,0.3-1.4,1-1.4,1.9v2.7c0,0.9,0.6,1.6,1.4,1.9v2.2
			c0,1.1,0.9,2,2,2s2-0.9,2-2v-2.2c0.8-0.3,1.4-1,1.4-1.9v-2.7C8.4,220.4,7.8,219.7,7,219.4z M4.3,210.4c0-0.4,0.3-0.7,0.7-0.7
			c0.4,0,0.7,0.3,0.7,0.7v8.8H4.3V210.4z M5.7,228.1c0,0.4-0.3,0.7-0.7,0.7c-0.4,0-0.7-0.3-0.7-0.7v-2h1.4V228.1z M7,224
			c0,0.4-0.3,0.7-0.7,0.7H3.6c-0.4,0-0.7-0.3-0.7-0.7v-2.7c0-0.4,0.3-0.7,0.7-0.7h2.7c0.4,0,0.7,0.3,0.7,0.7V224z M21.9,216.7v-6.2
			c0-1.1-0.9-2-2-2s-2,0.9-2,2v6.2c-0.8,0.3-1.4,1-1.4,1.9v2.7c0,0.9,0.6,1.6,1.4,1.9v4.9c0,1.1,0.9,2,2,2s2-0.9,2-2v-4.9
			c0.8-0.3,1.4-1,1.4-1.9v-2.7C23.3,217.7,22.7,216.9,21.9,216.7z M19.2,210.4c0-0.4,0.3-0.7,0.7-0.7c0.4,0,0.7,0.3,0.7,0.7v6.1
			h-1.4V210.4z M20.6,228.1c0,0.4-0.3,0.7-0.7,0.7c-0.4,0-0.7-0.3-0.7-0.7v-4.8h1.4V228.1z M21.9,221.3c0,0.4-0.3,0.7-0.7,0.7h-2.7
			c-0.4,0-0.7-0.3-0.7-0.7v-2.7c0-0.4,0.3-0.7,0.7-0.7h2.7c0.4,0,0.7,0.3,0.7,0.7V221.3z M14.5,211.2v-0.8c0-1.1-0.9-2-2-2
			c-1.1,0-2,0.9-2,2v0.8c-0.8,0.3-1.4,1-1.4,1.9v2.7c0,0.9,0.6,1.6,1.4,1.9v10.3c0,1.1,0.9,2,2,2c1.1,0,2-0.9,2-2v-10.3
			c0.8-0.3,1.4-1,1.4-1.9v-2.7C15.8,212.3,15.3,211.5,14.5,211.2z M11.8,210.4c0-0.4,0.3-0.7,0.7-0.7c0.4,0,0.7,0.3,0.7,0.7v0.7
			h-1.4V210.4z M13.1,228.1c0,0.4-0.3,0.7-0.7,0.7c-0.4,0-0.7-0.3-0.7-0.7v-10.2h1.4V228.1z M14.5,215.9c0,0.4-0.3,0.7-0.7,0.7h-2.7
			c-0.4,0-0.7-0.3-0.7-0.7v-2.7c0-0.4,0.3-0.7,0.7-0.7h2.7c0.4,0,0.7,0.3,0.7,0.7V215.9z"/>
	</g>
</g>
<g id="Smartphone_2_">
	<g>
		<path fill="#525252" d="M17.4,156.9H7.5c-1,0-1.9,0.9-1.9,2v17.8c0,1.1,0.8,2,1.9,2h9.8c1,0,1.9-0.9,1.9-2v-17.8
			C19.2,157.8,18.4,156.9,17.4,156.9z M17.9,176.7c0,0.3-0.2,0.6-0.5,0.6H7.5c-0.3,0-0.5-0.3-0.5-0.6v-2.8h10.9V176.7z M17.9,172.5
			H7v-10.2h10.9V172.5z M17.9,161H7v-2.1c0-0.3,0.2-0.6,0.5-0.6h9.8c0.3,0,0.5,0.3,0.5,0.6V161z M12.4,176.6c0.6,0,1-0.5,1-1
			c0-0.6-0.5-1-1-1c-0.6,0-1,0.5-1,1C11.4,176.1,11.9,176.6,12.4,176.6z M13.8,158.9h-2.7c-0.4,0-0.7,0.3-0.7,0.7
			c0,0.4,0.3,0.7,0.7,0.7h2.7c0.4,0,0.7-0.3,0.7-0.7C14.5,159.2,14.2,158.9,13.8,158.9z"/>
	</g>
</g>
<g id="Bag_2_">
	<g>
		<path fill="#525252" d="M20.6,265.9c0-0.4-0.3-0.6-0.7-0.6h-3.4V264c0-2.2-1.8-4.1-4.1-4.1c-2.2,0-4.1,1.8-4.1,4.1v1.4H5
			c-0.4,0-0.6,0.3-0.7,0.6l-1.4,14.9c0,0.2,0,0.4,0.2,0.5c0.1,0.1,0.3,0.2,0.5,0.2h17.6c0.2,0,0.4-0.1,0.5-0.2
			c0.1-0.1,0.2-0.3,0.2-0.5L20.6,265.9z M9.7,264c0-1.5,1.2-2.7,2.7-2.7c1.5,0,2.7,1.2,2.7,2.7v1.4H9.7V264z M4.4,280.2l1.2-13.6
			h2.8v1.5c-0.4,0.2-0.7,0.7-0.7,1.2c0,0.7,0.6,1.4,1.4,1.4c0.7,0,1.4-0.6,1.4-1.4c0-0.5-0.3-0.9-0.7-1.2v-1.5h5.4v1.5
			c-0.4,0.2-0.7,0.7-0.7,1.2c0,0.7,0.6,1.4,1.4,1.4c0.7,0,1.4-0.6,1.4-1.4c0-0.5-0.3-0.9-0.7-1.2v-1.5h2.8l1.2,13.6H4.4z"/>
	</g>
</g>
<g>
	<path d="M103.7-26.4c0-1,0.6-1.7,1.5-2.1l0,0c-0.9-0.4-1.2-1.1-1.2-1.8c0-1.2,1-2.1,2.4-2.1c1.5,0,2.3,0.9,2.3,1.9
		c0,0.7-0.3,1.4-1.3,1.8v0c1,0.4,1.6,1.1,1.6,2c0,1.4-1.2,2.3-2.7,2.3C104.6-24.3,103.7-25.2,103.7-26.4z M107.9-26.4
		c0-0.9-0.7-1.4-1.7-1.7c-0.9,0.3-1.4,0.9-1.4,1.6c0,0.8,0.6,1.5,1.6,1.5C107.2-25,107.9-25.6,107.9-26.4z M105-30.3
		c0,0.8,0.6,1.2,1.5,1.4c0.7-0.2,1.2-0.7,1.2-1.4c0-0.6-0.4-1.3-1.3-1.3C105.4-31.6,105-31,105-30.3z"/>
	<path d="M114.4-24.6c-0.3,0.1-0.9,0.3-1.7,0.3c-1.8,0-2.9-1.2-2.9-3c0-1.8,1.2-3.1,3.1-3.1c0.6,0,1.2,0.2,1.5,0.3l-0.2,0.8
		c-0.3-0.1-0.6-0.3-1.2-0.3c-1.3,0-2.1,1-2.1,2.2c0,1.3,0.9,2.2,2,2.2c0.6,0,1-0.2,1.3-0.3L114.4-24.6z"/>
	<path d="M119.7-24.6c-0.3,0.1-0.9,0.3-1.7,0.3c-1.8,0-2.9-1.2-2.9-3c0-1.8,1.2-3.1,3.1-3.1c0.6,0,1.2,0.2,1.5,0.3l-0.2,0.8
		c-0.3-0.1-0.6-0.3-1.2-0.3c-1.3,0-2.1,1-2.1,2.2c0,1.3,0.9,2.2,2,2.2c0.6,0,1-0.2,1.3-0.3L119.7-24.6z"/>
	<path d="M125-31.4c-0.2,0-0.5,0-0.8,0c-1.7,0.3-2.5,1.5-2.7,2.8h0c0.4-0.5,1-0.9,1.9-0.9c1.4,0,2.4,1,2.4,2.5c0,1.4-1,2.7-2.6,2.7
		c-1.7,0-2.8-1.3-2.8-3.3c0-1.5,0.6-2.7,1.3-3.5c0.6-0.6,1.5-1,2.5-1.2c0.3,0,0.6-0.1,0.8-0.1V-31.4z M124.7-26.9
		c0-1.1-0.6-1.8-1.6-1.8c-0.6,0-1.2,0.4-1.5,1c-0.1,0.1-0.1,0.3-0.1,0.5c0,1.3,0.6,2.2,1.7,2.2C124.1-25.1,124.7-25.8,124.7-26.9z"
		/>
	<path d="M127-25.6c0.3,0.2,1,0.5,1.7,0.5c1.4,0,1.8-0.9,1.8-1.5c0-1.1-1-1.6-2-1.6h-0.6V-29h0.6c0.8,0,1.7-0.4,1.7-1.3
		c0-0.6-0.4-1.2-1.4-1.2c-0.6,0-1.2,0.3-1.6,0.5l-0.3-0.8c0.4-0.3,1.2-0.6,2-0.6c1.5,0,2.2,0.9,2.2,1.9c0,0.8-0.5,1.5-1.4,1.8v0
		c1,0.2,1.7,0.9,1.7,2c0,1.2-1,2.3-2.8,2.3c-0.9,0-1.6-0.3-2-0.5L127-25.6z"/>
	<path d="M133.4-24.4v-5h-0.8v-0.8h0.8v-0.3c0-0.8,0.2-1.6,0.7-2c0.4-0.4,0.9-0.5,1.4-0.5c0.4,0,0.7,0.1,0.9,0.2l-0.1,0.8
		c-0.2-0.1-0.4-0.1-0.7-0.1c-0.9,0-1.1,0.8-1.1,1.7v0.3h1.4v0.8h-1.4v5H133.4z"/>
</g>
<ellipse fill="#222222" cx="-65.3" cy="40.2" rx="16.3" ry="17.4"/>
<ellipse fill="#515151" cx="-62.4" cy="40.2" rx="17" ry="11.3"/>
<g>
</g>
<g>
</g>
<g>
</g>
<g>
</g>
<g>
</g>
<g>
</g>
<g>
</g>
<g>
</g>
<g>
</g>
<g>
</g>
<g>
</g>
<g>
</g>
<g>
</g>
<g>
</g>
<g>
</g>
</svg>
