<?xml version="1.0" encoding="utf-8"?>
<!-- Generator: Adobe Illustrator 18.0.0, SVG Export Plug-In . SVG Version: 6.00 Build 0)  -->
<!DOCTYPE svg PUBLIC "-//W3C//DTD SVG 1.1//EN" "http://www.w3.org/Graphics/SVG/1.1/DTD/svg11.dtd">
<svg version="1.1" id="Layer_1" xmlns="http://www.w3.org/2000/svg" xmlns:xlink="http://www.w3.org/1999/xlink" x="0px" y="0px"
	 viewBox="0 0 25.8 26.1" enable-background="new 0 0 25.8 26.1" xml:space="preserve">
<g id="Magnifying_x5F_Glass_16_">
	<g>
		<path fill="#8CC63F" d="M21.8,122.7l-6-6c0.6-1,1-2.3,1-3.5c0-3.9-3.2-7.1-7.1-7.1c-3.9,0-7.1,3.2-7.1,7.1s3.2,7.1,7.1,7.1
			c1.3,0,2.5-0.3,3.5-1l6,6c0.4,0.4,0.8,0.5,1.3,0.5c0.5,0,1-0.2,1.3-0.5C22.5,124.6,22.5,123.4,21.8,122.7z M9.7,119.1
			c-3.2,0-5.9-2.6-5.9-5.9s2.6-5.9,5.9-5.9c3.2,0,5.9,2.6,5.9,5.9S12.9,119.1,9.7,119.1z M20.9,124.5c-0.2,0.2-0.3,0.2-0.4,0.2
			s-0.3,0-0.4-0.2l-5.8-5.8c0.3-0.3,0.6-0.6,0.9-0.9l5.8,5.8c0.2,0.2,0.2,0.3,0.2,0.4C21.1,124.1,21.1,124.3,20.9,124.5z"/>
	</g>
</g>
<g id="Mail_x5F_1_4_">
	<g>
		<path fill="#8CC63F" d="M22.7,54.2c-0.4-0.4-0.9-0.6-1.4-0.6H3.6c-0.5,0-1.1,0.2-1.4,0.6c-0.4,0.4-0.6,0.9-0.6,1.4v17.6
			c0,0.1,0,0.3,0,0.4c0,0,0,0,0,0.1c0,0.1,0.1,0.2,0.1,0.3c0,0,0,0,0,0c0.1,0.2,0.2,0.4,0.4,0.6c0.1,0.1,0.2,0.2,0.3,0.2
			c0,0,0,0,0,0c0.1,0.1,0.2,0.1,0.3,0.2c0,0,0,0,0,0c0.1,0,0.2,0.1,0.3,0.1c0,0,0.1,0,0.1,0c0.1,0,0.3,0,0.4,0h17.6
			c0.1,0,0.3,0,0.4,0c0,0,0.1,0,0.1,0c0.1,0,0.2-0.1,0.3-0.1c0,0,0,0,0.1,0c0.1,0,0.2-0.1,0.3-0.2c0,0,0,0,0,0
			c0.1-0.1,0.2-0.1,0.3-0.2c0.2-0.2,0.3-0.4,0.4-0.6c0,0,0,0,0,0c0-0.1,0.1-0.2,0.1-0.3c0,0,0,0,0-0.1c0-0.1,0-0.3,0-0.4V55.7
			C23.3,55.1,23.1,54.6,22.7,54.2z M2.9,57.9l6.6,6.6l-6.6,6.6V57.9z M21.9,73.6c0,0.1-0.1,0.2-0.1,0.2c-0.1,0.1-0.1,0.1-0.2,0.1
			c-0.1,0-0.2,0.1-0.3,0.1H3.6c-0.1,0-0.2,0-0.3-0.1c-0.1,0-0.2-0.1-0.2-0.1C3.1,73.7,3,73.7,3,73.6c0-0.1-0.1-0.2-0.1-0.3
			c0-0.2,0.1-0.3,0.2-0.5l7.4-7.4l0.5,0.5c0.4,0.4,0.9,0.6,1.4,0.6c0.5,0,1.1-0.2,1.4-0.6l0.5-0.5l7.4,7.4c0.1,0.1,0.2,0.3,0.2,0.5
			C21.9,73.4,21.9,73.5,21.9,73.6z M21.9,71.1l-6.6-6.6l6.6-6.6V71.1z M21.7,56.2L12.9,65c-0.3,0.3-0.7,0.3-1,0l-8.8-8.8
			C3,56,2.9,55.9,2.9,55.7c0-0.2,0.1-0.4,0.2-0.5C3.3,55.1,3.4,55,3.6,55h17.6c0.2,0,0.4,0.1,0.5,0.2c0.1,0.1,0.2,0.3,0.2,0.5
			C21.9,55.9,21.9,56,21.7,56.2z"/>
	</g>
</g>
<g id="Shape_76_8_">
	<g>
		<path fill="#8CC63F" d="M11.4,17.1c2.8,0,5.1-2.8,5.1-6.2c0-3.4-2.3-6.2-5.1-6.2c-1.4,0-2.7,0.7-3.7,1.9c-0.9,1.2-1.4,2.7-1.4,4.3
			C6.3,14.3,8.6,17.1,11.4,17.1z M11.4,6.1c2.1,0,3.7,2.2,3.7,4.8s-1.7,4.8-3.7,4.8c-2.1,0-3.7-2.2-3.7-4.8
			C7.7,8.2,9.4,6.1,11.4,6.1z M15.7,16.4c-0.4,0-0.7,0.3-0.7,0.7c0,0.4,0.3,0.7,0.7,0.7c2.3,0,4.2,1.9,4.2,4.2
			c0,0.3-0.2,0.5-0.5,0.5H3.5c-0.3,0-0.5-0.2-0.5-0.5c0-2.3,1.9-4.2,4.2-4.2c0.4,0,0.7-0.3,0.7-0.7c0-0.4-0.3-0.7-0.7-0.7
			c-3.1,0-5.6,2.5-5.6,5.6c0,1,0.9,1.9,1.9,1.9h15.9c1,0,1.9-0.9,1.9-1.9C21.3,18.9,18.8,16.4,15.7,16.4z M11.9,3.9
			c0.5-0.3,1-0.4,1.5-0.4c2.1,0,3.7,2.2,3.7,4.8c0,0.5-0.1,0.9-0.2,1.4c-0.1,0.4,0.1,0.7,0.5,0.8c0.1,0,0.1,0,0.2,0
			c0.3,0,0.6-0.2,0.7-0.5c0.1-0.6,0.2-1.1,0.2-1.7c0-3.4-2.3-6.2-5.1-6.2c-0.8,0-1.5,0.2-2.2,0.6C10.9,3,10.8,3.4,11,3.7
			S11.6,4.1,11.9,3.9z M17.9,13.7c-0.4,0-0.7,0.3-0.7,0.7c0,0.4,0.3,0.7,0.7,0.7c2.3,0,4.1,1.9,4.1,4.3c0,0.1,0,0.2,0,0.2
			c-0.2,0.3,0,0.7,0.3,0.9c0.1,0,0.2,0.1,0.3,0.1c0.3,0,0.5-0.1,0.6-0.4c0.1-0.2,0.2-0.5,0.2-0.8C23.3,16.2,20.9,13.7,17.9,13.7z"/>
	</g>
</g>
<g id="Microphone_4_">
	<g>
		<path fill="#8CC63F" d="M12.4,172.2c2.6,0,4.8-2.1,4.8-4.8v-6.1c0-2.6-2.1-4.8-4.8-4.8c-2.6,0-4.8,2.1-4.8,4.8v6.1
			C7.7,170.1,9.8,172.2,12.4,172.2z M9.7,166.1H9v-1.4h0.7c0.4,0,0.7-0.3,0.7-0.7c0-0.4-0.3-0.7-0.7-0.7H9V162h0.7
			c0.4,0,0.7-0.3,0.7-0.7s-0.3-0.7-0.7-0.7H9.1c0.3-1.5,1.7-2.7,3.3-2.7c1.6,0,3,1.2,3.3,2.7h-0.6c-0.4,0-0.7,0.3-0.7,0.7
			s0.3,0.7,0.7,0.7h0.7v1.4h-0.7c-0.4,0-0.7,0.3-0.7,0.7c0,0.4,0.3,0.7,0.7,0.7h0.7v1.4h-0.7c-0.4,0-0.7,0.3-0.7,0.7
			c0,0.4,0.3,0.7,0.7,0.7h0.7c0,1.9-1.5,3.4-3.4,3.4c-1.9,0-3.4-1.5-3.4-3.4h0.7c0.4,0,0.7-0.3,0.7-0.7
			C10.4,166.4,10.1,166.1,9.7,166.1z M12.4,169.5c0.4,0,0.7-0.3,0.7-0.7V160c0-0.4-0.3-0.7-0.7-0.7c-0.4,0-0.7,0.3-0.7,0.7v8.8
			C11.8,169.2,12.1,169.5,12.4,169.5z M17.2,177h-2.7v-2.3c3.1-0.9,5.4-3.8,5.4-7.2c0-0.4-0.3-0.7-0.7-0.7s-0.7,0.3-0.7,0.7
			c0,3.4-2.7,6.1-6.1,6.1c-3.4,0-6.1-2.7-6.1-6.1c0-0.4-0.3-0.7-0.7-0.7S5,167.1,5,167.5c0,3.4,2.3,6.3,5.4,7.2v2.3H7.7
			c-0.4,0-0.7,0.3-0.7,0.7c0,0.4,0.3,0.7,0.7,0.7h9.5c0.4,0,0.7-0.3,0.7-0.7C17.9,177.3,17.6,177,17.2,177z M13.1,177h-1.4v-2.1
			c0.2,0,0.4,0,0.7,0c0.2,0,0.5,0,0.7,0V177z"/>
	</g>
</g>
<g id="Music_x5F_Note_8_">
	<g>
		<path fill="#8CC63F" d="M20.3-152.2c-0.2-0.1-0.4-0.2-0.6-0.1l-9.5,2.7c-0.3,0.1-0.5,0.3-0.5,0.7v12.2c-0.6-0.4-1.3-0.7-2-0.7
			c-1.9,0-3.4,1.5-3.4,3.4s1.5,3.4,3.4,3.4s3.4-1.5,3.4-3.4v-11.7l8.1-2.3v8.6c-0.6-0.4-1.3-0.7-2-0.7c-1.9,0-3.4,1.5-3.4,3.4
			s1.5,3.4,3.4,3.4s3.4-1.5,3.4-3.4v-14.9C20.6-151.8,20.5-152,20.3-152.2z M7.7-131.9c-1.1,0-2-0.9-2-2c0-1.1,0.9-2,2-2s2,0.9,2,2
			C9.7-132.8,8.8-131.9,7.7-131.9z M17.2-134.7c-1.1,0-2-0.9-2-2s0.9-2,2-2s2,0.9,2,2S18.3-134.7,17.2-134.7z M19.2-149.4l-8.1,2.3
			v-1.3l8.1-2.3V-149.4z"/>
	</g>
</g>
<g id="Flame_4_">
	<g>
		<path fill="#8CC63F" d="M10.4-49.3c-0.3-0.1-0.6,0-0.8,0.2c-0.2,0.2-0.2,0.6,0,0.8c0,0,3,4.5-0.6,9c-4.1,5-1.9,9.5,0,11.4
			c0.1,0.1,0.3,0.2,0.5,0.2c0,0,0,0,0,0c0.4,0,0.7-0.3,0.7-0.7c0-0.1,0-0.2-0.1-0.3c-0.1-0.4-0.2-1.6-0.2-2.3c0-1.4,0.6-2.3,1.2-3
			c0,0.9,0.2,1.9,1,2.8c0.5,0.6,0.6,1.5,0.3,2.5c-0.1,0.3,0,0.6,0.2,0.8c0.2,0.2,0.6,0.2,0.8,0c1.2-0.9,5-4.3,5-9.7
			C18.2-46.2,10.5-49.3,10.4-49.3z M13.8-30c-0.1-0.7-0.3-1.3-0.8-1.9c-1.3-1.6-0.3-3.2-0.2-3.2c0.2-0.2,0.2-0.6,0-0.8
			c-0.1-0.2-0.3-0.3-0.5-0.3c-0.1,0-0.2,0-0.2,0c-0.1,0.1-3.4,1.4-3.5,5.2c-0.8-2-0.8-4.7,1.5-7.4c2.7-3.3,2.3-6.7,1.6-8.7
			c2.1,1.3,5.3,4.3,5.3,9.7C16.9-34,15.1-31.5,13.8-30z"/>
	</g>
</g>
<g id="Shape_76_5_">
	<g>
		<path fill="#8CC63F" d="M12.4-87.2c2.8,0,5.1-2.8,5.1-6.2c0-3.4-2.3-6.2-5.1-6.2c-1.4,0-2.7,0.7-3.7,1.9c-0.9,1.2-1.4,2.7-1.4,4.3
			C7.4-89.9,9.6-87.2,12.4-87.2z M12.4-98.2c2.1,0,3.7,2.2,3.7,4.8s-1.7,4.8-3.7,4.8c-2.1,0-3.7-2.2-3.7-4.8
			C8.7-96,10.4-98.2,12.4-98.2z M16.7-87.8c-0.4,0-0.7,0.3-0.7,0.7c0,0.4,0.3,0.7,0.7,0.7c2.3,0,4.2,1.9,4.2,4.2
			c0,0.3-0.2,0.5-0.5,0.5H4.5C4.2-81.7,4-82,4-82.3c0-2.3,1.9-4.2,4.2-4.2c0.4,0,0.7-0.3,0.7-0.7c0-0.4-0.3-0.7-0.7-0.7
			c-3.1,0-5.6,2.5-5.6,5.6c0,1,0.9,1.9,1.9,1.9h15.9c1,0,1.9-0.9,1.9-1.9C22.3-85.3,19.8-87.8,16.7-87.8z"/>
	</g>
</g>
<g id="Setup_3_">
	<g>
		<path fill="#8CC63F" d="M7,270.6v-8.9c0-1.1-0.9-2-2-2s-2,0.9-2,2v8.9c-0.8,0.3-1.4,1-1.4,1.9v2.7c0,0.9,0.6,1.6,1.4,1.9v2.2
			c0,1.1,0.9,2,2,2s2-0.9,2-2v-2.2c0.8-0.3,1.4-1,1.4-1.9v-2.7C8.4,271.6,7.8,270.9,7,270.6z M4.3,261.6c0-0.4,0.3-0.7,0.7-0.7
			c0.4,0,0.7,0.3,0.7,0.7v8.8H4.3V261.6z M5.7,279.3c0,0.4-0.3,0.7-0.7,0.7c-0.4,0-0.7-0.3-0.7-0.7v-2h1.4V279.3z M7,275.2
			c0,0.4-0.3,0.7-0.7,0.7H3.6c-0.4,0-0.7-0.3-0.7-0.7v-2.7c0-0.4,0.3-0.7,0.7-0.7h2.7c0.4,0,0.7,0.3,0.7,0.7V275.2z M21.9,267.9
			v-6.2c0-1.1-0.9-2-2-2s-2,0.9-2,2v6.2c-0.8,0.3-1.4,1-1.4,1.9v2.7c0,0.9,0.6,1.6,1.4,1.9v4.9c0,1.1,0.9,2,2,2s2-0.9,2-2v-4.9
			c0.8-0.3,1.4-1,1.4-1.9v-2.7C23.3,268.9,22.7,268.1,21.9,267.9z M19.2,261.6c0-0.4,0.3-0.7,0.7-0.7c0.4,0,0.7,0.3,0.7,0.7v6.1
			h-1.4V261.6z M20.6,279.3c0,0.4-0.3,0.7-0.7,0.7c-0.4,0-0.7-0.3-0.7-0.7v-4.8h1.4V279.3z M21.9,272.5c0,0.4-0.3,0.7-0.7,0.7h-2.7
			c-0.4,0-0.7-0.3-0.7-0.7v-2.7c0-0.4,0.3-0.7,0.7-0.7h2.7c0.4,0,0.7,0.3,0.7,0.7V272.5z M14.5,262.4v-0.8c0-1.1-0.9-2-2-2
			c-1.1,0-2,0.9-2,2v0.8c-0.8,0.3-1.4,1-1.4,1.9v2.7c0,0.9,0.6,1.6,1.4,1.9v10.3c0,1.1,0.9,2,2,2c1.1,0,2-0.9,2-2V269
			c0.8-0.3,1.4-1,1.4-1.9v-2.7C15.8,263.5,15.3,262.7,14.5,262.4z M11.8,261.6c0-0.4,0.3-0.7,0.7-0.7c0.4,0,0.7,0.3,0.7,0.7v0.7
			h-1.4V261.6z M13.1,279.3c0,0.4-0.3,0.7-0.7,0.7c-0.4,0-0.7-0.3-0.7-0.7v-10.2h1.4V279.3z M14.5,267.1c0,0.4-0.3,0.7-0.7,0.7h-2.7
			c-0.4,0-0.7-0.3-0.7-0.7v-2.7c0-0.4,0.3-0.7,0.7-0.7h2.7c0.4,0,0.7,0.3,0.7,0.7V267.1z"/>
	</g>
</g>
<g id="Smartphone_2_">
	<g>
		<path fill="#8CC63F" d="M17.4,208.1H7.5c-1,0-1.9,0.9-1.9,2v17.8c0,1.1,0.8,2,1.9,2h9.8c1,0,1.9-0.9,1.9-2v-17.8
			C19.2,209,18.4,208.1,17.4,208.1z M17.9,227.9c0,0.3-0.2,0.6-0.5,0.6H7.5c-0.3,0-0.5-0.3-0.5-0.6v-2.8h10.9V227.9z M17.9,223.7H7
			v-10.2h10.9V223.7z M17.9,212.2H7v-2.1c0-0.3,0.2-0.6,0.5-0.6h9.8c0.3,0,0.5,0.3,0.5,0.6V212.2z M12.4,227.8c0.6,0,1-0.5,1-1
			c0-0.6-0.5-1-1-1c-0.6,0-1,0.5-1,1C11.4,227.3,11.9,227.8,12.4,227.8z M13.8,210.1h-2.7c-0.4,0-0.7,0.3-0.7,0.7s0.3,0.7,0.7,0.7
			h2.7c0.4,0,0.7-0.3,0.7-0.7S14.2,210.1,13.8,210.1z"/>
	</g>
</g>
<g id="Bag_2_">
	<g>
		<path fill="#8CC63F" d="M20.6,317.1c0-0.4-0.3-0.6-0.7-0.6h-3.4v-1.4c0-2.2-1.8-4.1-4.1-4.1c-2.2,0-4.1,1.8-4.1,4.1v1.4H5
			c-0.4,0-0.6,0.3-0.7,0.6l-1.4,14.9c0,0.2,0,0.4,0.2,0.5c0.1,0.1,0.3,0.2,0.5,0.2h17.6c0.2,0,0.4-0.1,0.5-0.2
			c0.1-0.1,0.2-0.3,0.2-0.5L20.6,317.1z M9.7,315.2c0-1.5,1.2-2.7,2.7-2.7c1.5,0,2.7,1.2,2.7,2.7v1.4H9.7V315.2z M4.4,331.4
			l1.2-13.6h2.8v1.5c-0.4,0.2-0.7,0.7-0.7,1.2c0,0.7,0.6,1.4,1.4,1.4c0.7,0,1.4-0.6,1.4-1.4c0-0.5-0.3-0.9-0.7-1.2v-1.5h5.4v1.5
			c-0.4,0.2-0.7,0.7-0.7,1.2c0,0.7,0.6,1.4,1.4,1.4c0.7,0,1.4-0.6,1.4-1.4c0-0.5-0.3-0.9-0.7-1.2v-1.5h2.8l1.2,13.6H4.4z"/>
	</g>
</g>
<g>
</g>
<g>
</g>
<g>
</g>
<g>
</g>
<g>
</g>
<g>
</g>
<g>
</g>
<g>
</g>
<g>
</g>
<g>
</g>
<g>
</g>
<g>
</g>
<g>
</g>
<g>
</g>
<g>
</g>
</svg>
