<?xml version="1.0" encoding="utf-8"?>
<!-- Generator: Adobe Illustrator 18.0.0, SVG Export Plug-In . SVG Version: 6.00 Build 0)  -->
<!DOCTYPE svg PUBLIC "-//W3C//DTD SVG 1.1//EN" "http://www.w3.org/Graphics/SVG/1.1/DTD/svg11.dtd">
<svg version="1.1" id="Layer_1" xmlns="http://www.w3.org/2000/svg" xmlns:xlink="http://www.w3.org/1999/xlink" x="0px" y="0px"
	 viewBox="0 0 25.8 26.1" enable-background="new 0 0 25.8 26.1" xml:space="preserve">
<g id="Magnifying_x5F_Glass_16_">
	<g>
		<path fill="#525252" d="M21.8-83.6l-6-6c0.6-1,1-2.3,1-3.5c0-3.9-3.2-7.1-7.1-7.1c-3.9,0-7.1,3.2-7.1,7.1S5.7-86,9.7-86
			c1.3,0,2.5-0.3,3.5-1l6,6c0.4,0.4,0.8,0.5,1.3,0.5c0.5,0,1-0.2,1.3-0.5C22.5-81.7,22.5-82.9,21.8-83.6z M9.7-87.2
			c-3.2,0-5.9-2.6-5.9-5.9c0-3.2,2.6-5.9,5.9-5.9c3.2,0,5.9,2.6,5.9,5.9C15.5-89.9,12.9-87.2,9.7-87.2z M20.9-81.8
			c-0.2,0.2-0.3,0.2-0.4,0.2s-0.3,0-0.4-0.2l-5.8-5.8c0.3-0.3,0.6-0.6,0.9-0.9l5.8,5.8c0.2,0.2,0.2,0.3,0.2,0.4
			C21.1-82.2,21.1-82,20.9-81.8z"/>
	</g>
</g>
<g id="Mail_x5F_1_4_">
	<g>
		<path fill="#525252" d="M20.9-150.3c-0.3-0.3-0.7-0.5-1.2-0.5H5.1c-0.5,0-0.9,0.2-1.2,0.5c-0.3,0.3-0.5,0.7-0.5,1.2v14.6
			c0,0.1,0,0.2,0,0.3c0,0,0,0,0,0.1c0,0.1,0,0.2,0.1,0.3c0,0,0,0,0,0c0.1,0.2,0.2,0.4,0.3,0.5c0.1,0.1,0.2,0.1,0.2,0.2c0,0,0,0,0,0
			c0.1,0.1,0.2,0.1,0.2,0.1c0,0,0,0,0,0c0.1,0,0.2,0.1,0.3,0.1c0,0,0,0,0.1,0c0.1,0,0.2,0,0.3,0h14.6c0.1,0,0.2,0,0.3,0
			c0,0,0,0,0.1,0c0.1,0,0.2,0,0.3-0.1c0,0,0,0,0,0c0.1,0,0.2-0.1,0.2-0.1c0,0,0,0,0,0c0.1-0.1,0.2-0.1,0.2-0.2
			c0.1-0.1,0.3-0.3,0.3-0.5c0,0,0,0,0,0c0-0.1,0.1-0.2,0.1-0.3c0,0,0,0,0-0.1c0-0.1,0-0.2,0-0.3v-14.6
			C21.4-149.6,21.3-150,20.9-150.3z M4.6-147.3l5.5,5.5l-5.5,5.5V-147.3z M20.3-134.3c0,0.1-0.1,0.1-0.1,0.2C20.1-134,20-134,20-134
			c-0.1,0-0.1,0-0.2,0H5.1c-0.1,0-0.2,0-0.2,0c-0.1,0-0.1-0.1-0.2-0.1c-0.1-0.1-0.1-0.1-0.1-0.2c0-0.1,0-0.1,0-0.2
			c0-0.1,0.1-0.3,0.2-0.4l6.1-6.1l0.4,0.4c0.3,0.3,0.7,0.5,1.2,0.5c0.5,0,0.9-0.2,1.2-0.5L14-141l6.1,6.1c0.1,0.1,0.2,0.2,0.2,0.4
			C20.3-134.4,20.3-134.3,20.3-134.3z M20.3-136.3l-5.5-5.5l5.5-5.5V-136.3z M20.2-148.7l-7.3,7.3c-0.2,0.2-0.6,0.2-0.8,0l-7.3-7.3
			c-0.1-0.1-0.2-0.2-0.2-0.4c0-0.2,0.1-0.3,0.2-0.4c0.1-0.1,0.2-0.2,0.4-0.2h14.6c0.1,0,0.3,0.1,0.4,0.2c0.1,0.1,0.2,0.2,0.2,0.4
			C20.3-149,20.3-148.8,20.2-148.7z"/>
	</g>
</g>
<g id="Shape_76_8_">
	<g>
		<path fill="#525252" d="M11.4-189.2c2.8,0,5.1-2.8,5.1-6.2c0-3.4-2.3-6.2-5.1-6.2c-1.4,0-2.7,0.7-3.7,1.9
			c-0.9,1.2-1.4,2.7-1.4,4.3C6.3-192,8.6-189.2,11.4-189.2z M11.4-200.2c2.1,0,3.7,2.2,3.7,4.8s-1.7,4.8-3.7,4.8
			c-2.1,0-3.7-2.2-3.7-4.8C7.7-198.1,9.4-200.2,11.4-200.2z M15.7-189.9c-0.4,0-0.7,0.3-0.7,0.7c0,0.4,0.3,0.7,0.7,0.7
			c2.3,0,4.2,1.9,4.2,4.2c0,0.3-0.2,0.5-0.5,0.5H3.5c-0.3,0-0.5-0.2-0.5-0.5c0-2.3,1.9-4.2,4.2-4.2c0.4,0,0.7-0.3,0.7-0.7
			c0-0.4-0.3-0.7-0.7-0.7c-3.1,0-5.6,2.5-5.6,5.6c0,1,0.9,1.9,1.9,1.9h15.9c1,0,1.9-0.9,1.9-1.9C21.3-187.4,18.8-189.9,15.7-189.9z
			 M11.9-202.4c0.5-0.3,1-0.4,1.5-0.4c2.1,0,3.7,2.2,3.7,4.8c0,0.5-0.1,0.9-0.2,1.4c-0.1,0.4,0.1,0.7,0.5,0.8c0.1,0,0.1,0,0.2,0
			c0.3,0,0.6-0.2,0.7-0.5c0.1-0.6,0.2-1.1,0.2-1.7c0-3.4-2.3-6.2-5.1-6.2c-0.8,0-1.5,0.2-2.2,0.6c-0.3,0.2-0.4,0.6-0.2,0.9
			C11.2-202.3,11.6-202.2,11.9-202.4z M17.9-192.6c-0.4,0-0.7,0.3-0.7,0.7c0,0.4,0.3,0.7,0.7,0.7c2.3,0,4.1,1.9,4.1,4.3
			c0,0.1,0,0.2,0,0.2c-0.2,0.3,0,0.7,0.3,0.9c0.1,0,0.2,0.1,0.3,0.1c0.3,0,0.5-0.1,0.6-0.4c0.1-0.2,0.2-0.5,0.2-0.8
			C23.3-190.1,20.9-192.6,17.9-192.6z"/>
	</g>
</g>
<g id="Microphone_4_">
	<g>
		<path fill="#525252" d="M12.4-34.1c2.6,0,4.8-2.1,4.8-4.8v-6.1c0-2.6-2.1-4.8-4.8-4.8c-2.6,0-4.8,2.1-4.8,4.8v6.1
			C7.7-36.2,9.8-34.1,12.4-34.1z M9.7-40.2H9v-1.4h0.7c0.4,0,0.7-0.3,0.7-0.7c0-0.4-0.3-0.7-0.7-0.7H9v-1.4h0.7
			c0.4,0,0.7-0.3,0.7-0.7c0-0.4-0.3-0.7-0.7-0.7H9.1c0.3-1.5,1.7-2.7,3.3-2.7c1.6,0,3,1.2,3.3,2.7h-0.6c-0.4,0-0.7,0.3-0.7,0.7
			c0,0.4,0.3,0.7,0.7,0.7h0.7v1.4h-0.7c-0.4,0-0.7,0.3-0.7,0.7c0,0.4,0.3,0.7,0.7,0.7h0.7v1.4h-0.7c-0.4,0-0.7,0.3-0.7,0.7
			c0,0.4,0.3,0.7,0.7,0.7h0.7c0,1.9-1.5,3.4-3.4,3.4c-1.9,0-3.4-1.5-3.4-3.4h0.7c0.4,0,0.7-0.3,0.7-0.7
			C10.4-39.9,10.1-40.2,9.7-40.2z M12.4-36.8c0.4,0,0.7-0.3,0.7-0.7v-8.8c0-0.4-0.3-0.7-0.7-0.7c-0.4,0-0.7,0.3-0.7,0.7v8.8
			C11.8-37.1,12.1-36.8,12.4-36.8z M17.2-29.3h-2.7v-2.3c3.1-0.9,5.4-3.8,5.4-7.2c0-0.4-0.3-0.7-0.7-0.7s-0.7,0.3-0.7,0.7
			c0,3.4-2.7,6.1-6.1,6.1c-3.4,0-6.1-2.7-6.1-6.1c0-0.4-0.3-0.7-0.7-0.7S5-39.2,5-38.8c0,3.4,2.3,6.3,5.4,7.2v2.3H7.7
			C7.3-29.3,7-29,7-28.6C7-28.3,7.3-28,7.7-28h9.5c0.4,0,0.7-0.3,0.7-0.7C17.9-29,17.6-29.3,17.2-29.3z M13.1-29.3h-1.4v-2.1
			c0.2,0,0.4,0,0.7,0c0.2,0,0.5,0,0.7,0V-29.3z"/>
	</g>
</g>
<g id="Music_x5F_Note_8_">
	<g>
		<path fill="#525252" d="M20.3-358.5c-0.2-0.1-0.4-0.2-0.6-0.1l-9.5,2.7c-0.3,0.1-0.5,0.3-0.5,0.7v12.2c-0.6-0.4-1.3-0.7-2-0.7
			c-1.9,0-3.4,1.5-3.4,3.4s1.5,3.4,3.4,3.4s3.4-1.5,3.4-3.4V-352l8.1-2.3v8.6c-0.6-0.4-1.3-0.7-2-0.7c-1.9,0-3.4,1.5-3.4,3.4
			s1.5,3.4,3.4,3.4s3.4-1.5,3.4-3.4v-14.9C20.6-358.1,20.5-358.3,20.3-358.5z M7.7-338.2c-1.1,0-2-0.9-2-2s0.9-2,2-2s2,0.9,2,2
			S8.8-338.2,7.7-338.2z M17.2-340.9c-1.1,0-2-0.9-2-2s0.9-2,2-2s2,0.9,2,2S18.3-340.9,17.2-340.9z M19.2-355.7l-8.1,2.3v-1.3
			l8.1-2.3V-355.7z"/>
	</g>
</g>
<g id="Flame_4_">
	<g>
		<path fill="#525252" d="M10.4-255.6c-0.3-0.1-0.6,0-0.8,0.2c-0.2,0.2-0.2,0.6,0,0.8c0,0,3,4.5-0.6,9c-4.1,5-1.9,9.5,0,11.4
			c0.1,0.1,0.3,0.2,0.5,0.2c0,0,0,0,0,0c0.4,0,0.7-0.3,0.7-0.7c0-0.1,0-0.2-0.1-0.3c-0.1-0.4-0.2-1.6-0.2-2.3c0-1.4,0.6-2.3,1.2-3
			c0,0.9,0.2,1.9,1,2.8c0.5,0.6,0.6,1.5,0.3,2.5c-0.1,0.3,0,0.6,0.2,0.8c0.2,0.2,0.6,0.2,0.8,0c1.2-0.9,5-4.3,5-9.7
			C18.2-252.5,10.5-255.6,10.4-255.6z M13.8-236.3c-0.1-0.7-0.3-1.3-0.8-1.9c-1.3-1.6-0.3-3.2-0.2-3.2c0.2-0.2,0.2-0.6,0-0.8
			c-0.1-0.2-0.3-0.3-0.5-0.3c-0.1,0-0.2,0-0.2,0c-0.1,0.1-3.4,1.4-3.5,5.2c-0.8-2-0.8-4.7,1.5-7.4c2.7-3.3,2.3-6.7,1.6-8.7
			c2.1,1.3,5.3,4.3,5.3,9.7C16.9-240.3,15.1-237.8,13.8-236.3z"/>
	</g>
</g>
<g id="Shape_76_5_">
	<g>
		<path fill="#525252" d="M12.4-293.5c2.8,0,5.1-2.8,5.1-6.2c0-3.4-2.3-6.2-5.1-6.2c-1.4,0-2.7,0.7-3.7,1.9
			c-0.9,1.2-1.4,2.7-1.4,4.3C7.4-296.2,9.6-293.5,12.4-293.5z M12.4-304.5c2.1,0,3.7,2.2,3.7,4.8c0,2.7-1.7,4.8-3.7,4.8
			c-2.1,0-3.7-2.2-3.7-4.8C8.7-302.3,10.4-304.5,12.4-304.5z M16.7-294.1c-0.4,0-0.7,0.3-0.7,0.7c0,0.4,0.3,0.7,0.7,0.7
			c2.3,0,4.2,1.9,4.2,4.2c0,0.3-0.2,0.5-0.5,0.5H4.5c-0.3,0-0.5-0.2-0.5-0.5c0-2.3,1.9-4.2,4.2-4.2c0.4,0,0.7-0.3,0.7-0.7
			c0-0.4-0.3-0.7-0.7-0.7c-3.1,0-5.6,2.5-5.6,5.6c0,1,0.9,1.9,1.9,1.9h15.9c1,0,1.9-0.9,1.9-1.9C22.3-291.6,19.8-294.1,16.7-294.1z"
			/>
	</g>
</g>
<g id="Setup_3_">
	<g>
		<path fill="#525252" d="M7,64.3v-8.9c0-1.1-0.9-2-2-2s-2,0.9-2,2v8.9c-0.8,0.3-1.4,1-1.4,1.9v2.7c0,0.9,0.6,1.6,1.4,1.9V73
			c0,1.1,0.9,2,2,2s2-0.9,2-2v-2.2c0.8-0.3,1.4-1,1.4-1.9v-2.7C8.4,65.3,7.8,64.6,7,64.3z M4.3,55.3c0-0.4,0.3-0.7,0.7-0.7
			c0.4,0,0.7,0.3,0.7,0.7v8.8H4.3V55.3z M5.7,73c0,0.4-0.3,0.7-0.7,0.7c-0.4,0-0.7-0.3-0.7-0.7v-2h1.4V73z M7,68.9
			c0,0.4-0.3,0.7-0.7,0.7H3.6c-0.4,0-0.7-0.3-0.7-0.7v-2.7c0-0.4,0.3-0.7,0.7-0.7h2.7c0.4,0,0.7,0.3,0.7,0.7V68.9z M21.9,61.6v-6.2
			c0-1.1-0.9-2-2-2s-2,0.9-2,2v6.2c-0.8,0.3-1.4,1-1.4,1.9v2.7c0,0.9,0.6,1.6,1.4,1.9V73c0,1.1,0.9,2,2,2s2-0.9,2-2v-4.9
			c0.8-0.3,1.4-1,1.4-1.9v-2.7C23.3,62.6,22.7,61.8,21.9,61.6z M19.2,55.3c0-0.4,0.3-0.7,0.7-0.7c0.4,0,0.7,0.3,0.7,0.7v6.1h-1.4
			V55.3z M20.6,73c0,0.4-0.3,0.7-0.7,0.7c-0.4,0-0.7-0.3-0.7-0.7v-4.8h1.4V73z M21.9,66.2c0,0.4-0.3,0.7-0.7,0.7h-2.7
			c-0.4,0-0.7-0.3-0.7-0.7v-2.7c0-0.4,0.3-0.7,0.7-0.7h2.7c0.4,0,0.7,0.3,0.7,0.7V66.2z M14.5,56.1v-0.8c0-1.1-0.9-2-2-2
			c-1.1,0-2,0.9-2,2v0.8C9.6,56.4,9,57.2,9,58v2.7c0,0.9,0.6,1.6,1.4,1.9V73c0,1.1,0.9,2,2,2c1.1,0,2-0.9,2-2V62.7
			c0.8-0.3,1.4-1,1.4-1.9V58C15.8,57.2,15.3,56.4,14.5,56.1z M11.8,55.3c0-0.4,0.3-0.7,0.7-0.7c0.4,0,0.7,0.3,0.7,0.7V56h-1.4V55.3z
			 M13.1,73c0,0.4-0.3,0.7-0.7,0.7c-0.4,0-0.7-0.3-0.7-0.7V62.8h1.4V73z M14.5,60.8c0,0.4-0.3,0.7-0.7,0.7h-2.7
			c-0.4,0-0.7-0.3-0.7-0.7V58c0-0.4,0.3-0.7,0.7-0.7h2.7c0.4,0,0.7,0.3,0.7,0.7V60.8z"/>
	</g>
</g>
<g id="Smartphone_2_">
	<g>
		<path fill="#525252" d="M17.4,1.8H7.5c-1,0-1.9,0.9-1.9,2v17.8c0,1.1,0.8,2,1.9,2h9.8c1,0,1.9-0.9,1.9-2V3.8
			C19.2,2.7,18.4,1.8,17.4,1.8z M17.9,21.6c0,0.3-0.2,0.6-0.5,0.6H7.5c-0.3,0-0.5-0.3-0.5-0.6v-2.8h10.9V21.6z M17.9,17.4H7V7.2
			h10.9V17.4z M17.9,5.9H7V3.8c0-0.3,0.2-0.6,0.5-0.6h9.8c0.3,0,0.5,0.3,0.5,0.6V5.9z M12.4,21.5c0.6,0,1-0.5,1-1c0-0.6-0.5-1-1-1
			c-0.6,0-1,0.5-1,1C11.4,21,11.9,21.5,12.4,21.5z M13.8,3.8h-2.7c-0.4,0-0.7,0.3-0.7,0.7c0,0.4,0.3,0.7,0.7,0.7h2.7
			c0.4,0,0.7-0.3,0.7-0.7C14.5,4.1,14.2,3.8,13.8,3.8z"/>
	</g>
</g>
<g id="Bag_2_">
	<g>
		<path fill="#525252" d="M20.6,110.8c0-0.4-0.3-0.6-0.7-0.6h-3.4v-1.4c0-2.2-1.8-4.1-4.1-4.1c-2.2,0-4.1,1.8-4.1,4.1v1.4H5
			c-0.4,0-0.6,0.3-0.7,0.6l-1.4,14.9c0,0.2,0,0.4,0.2,0.5c0.1,0.1,0.3,0.2,0.5,0.2h17.6c0.2,0,0.4-0.1,0.5-0.2
			c0.1-0.1,0.2-0.3,0.2-0.5L20.6,110.8z M9.7,108.9c0-1.5,1.2-2.7,2.7-2.7c1.5,0,2.7,1.2,2.7,2.7v1.4H9.7V108.9z M4.4,125.1
			l1.2-13.6h2.8v1.5c-0.4,0.2-0.7,0.7-0.7,1.2c0,0.7,0.6,1.4,1.4,1.4c0.7,0,1.4-0.6,1.4-1.4c0-0.5-0.3-0.9-0.7-1.2v-1.5h5.4v1.5
			c-0.4,0.2-0.7,0.7-0.7,1.2c0,0.7,0.6,1.4,1.4,1.4c0.7,0,1.4-0.6,1.4-1.4c0-0.5-0.3-0.9-0.7-1.2v-1.5h2.8l1.2,13.6H4.4z"/>
	</g>
</g>
<g>
	<path d="M103.7-26.4c0-1,0.6-1.7,1.5-2.1l0,0c-0.9-0.4-1.2-1.1-1.2-1.8c0-1.2,1-2.1,2.4-2.1c1.5,0,2.3,0.9,2.3,1.9
		c0,0.7-0.3,1.4-1.3,1.8v0c1,0.4,1.6,1.1,1.6,2c0,1.4-1.2,2.3-2.7,2.3C104.6-24.3,103.7-25.2,103.7-26.4z M107.9-26.4
		c0-0.9-0.7-1.4-1.7-1.7c-0.9,0.3-1.4,0.9-1.4,1.6c0,0.8,0.6,1.5,1.6,1.5C107.2-25,107.9-25.6,107.9-26.4z M105-30.3
		c0,0.8,0.6,1.2,1.5,1.4c0.7-0.2,1.2-0.7,1.2-1.4c0-0.6-0.4-1.3-1.3-1.3C105.4-31.6,105-31,105-30.3z"/>
	<path d="M114.4-24.6c-0.3,0.1-0.9,0.3-1.7,0.3c-1.8,0-2.9-1.2-2.9-3c0-1.8,1.2-3.1,3.1-3.1c0.6,0,1.2,0.2,1.5,0.3l-0.2,0.8
		c-0.3-0.1-0.6-0.3-1.2-0.3c-1.3,0-2.1,1-2.1,2.2c0,1.3,0.9,2.2,2,2.2c0.6,0,1-0.2,1.3-0.3L114.4-24.6z"/>
	<path d="M119.7-24.6c-0.3,0.1-0.9,0.3-1.7,0.3c-1.8,0-2.9-1.2-2.9-3c0-1.8,1.2-3.1,3.1-3.1c0.6,0,1.2,0.2,1.5,0.3l-0.2,0.8
		c-0.3-0.1-0.6-0.3-1.2-0.3c-1.3,0-2.1,1-2.1,2.2c0,1.3,0.9,2.2,2,2.2c0.6,0,1-0.2,1.3-0.3L119.7-24.6z"/>
	<path d="M125-31.4c-0.2,0-0.5,0-0.8,0c-1.7,0.3-2.5,1.5-2.7,2.8h0c0.4-0.5,1-0.9,1.9-0.9c1.4,0,2.4,1,2.4,2.5c0,1.4-1,2.7-2.6,2.7
		c-1.7,0-2.8-1.3-2.8-3.3c0-1.5,0.6-2.7,1.3-3.5c0.6-0.6,1.5-1,2.5-1.2c0.3,0,0.6-0.1,0.8-0.1V-31.4z M124.7-26.9
		c0-1.1-0.6-1.8-1.6-1.8c-0.6,0-1.2,0.4-1.5,1c-0.1,0.1-0.1,0.3-0.1,0.5c0,1.3,0.6,2.2,1.7,2.2C124.1-25.1,124.7-25.8,124.7-26.9z"
		/>
	<path d="M127-25.6c0.3,0.2,1,0.5,1.7,0.5c1.4,0,1.8-0.9,1.8-1.5c0-1.1-1-1.6-2-1.6h-0.6V-29h0.6c0.8,0,1.7-0.4,1.7-1.3
		c0-0.6-0.4-1.2-1.4-1.2c-0.6,0-1.2,0.3-1.6,0.5l-0.3-0.8c0.4-0.3,1.2-0.6,2-0.6c1.5,0,2.2,0.9,2.2,1.9c0,0.8-0.5,1.5-1.4,1.8v0
		c1,0.2,1.7,0.9,1.7,2c0,1.2-1,2.3-2.8,2.3c-0.9,0-1.6-0.3-2-0.5L127-25.6z"/>
	<path d="M133.4-24.4v-5h-0.8v-0.8h0.8v-0.3c0-0.8,0.2-1.6,0.7-2c0.4-0.4,0.9-0.5,1.4-0.5c0.4,0,0.7,0.1,0.9,0.2l-0.1,0.8
		c-0.2-0.1-0.4-0.1-0.7-0.1c-0.9,0-1.1,0.8-1.1,1.7v0.3h1.4v0.8h-1.4v5H133.4z"/>
</g>
<ellipse fill="#222222" cx="-65.3" cy="40.2" rx="16.3" ry="17.4"/>
<ellipse fill="#515151" cx="-62.4" cy="40.2" rx="17" ry="11.3"/>
<g>
</g>
<g>
</g>
<g>
</g>
<g>
</g>
<g>
</g>
<g>
</g>
<g>
</g>
<g>
</g>
<g>
</g>
<g>
</g>
<g>
</g>
<g>
</g>
<g>
</g>
<g>
</g>
<g>
</g>
</svg>
