<?xml version="1.0" encoding="utf-8"?>
<!-- Generator: Adobe Illustrator 18.0.0, SVG Export Plug-In . SVG Version: 6.00 Build 0)  -->
<!DOCTYPE svg PUBLIC "-//W3C//DTD SVG 1.1//EN" "http://www.w3.org/Graphics/SVG/1.1/DTD/svg11.dtd">
<svg version="1.1" id="Layer_1" xmlns="http://www.w3.org/2000/svg" xmlns:xlink="http://www.w3.org/1999/xlink" x="0px" y="0px"
	 viewBox="0 0 25.8 26.1" enable-background="new 0 0 25.8 26.1" xml:space="preserve">
<g id="Magnifying_x5F_Glass_16_">
	<g>
		<path fill="#8CC63F" d="M21.8,72l-6-6c0.6-1,1-2.3,1-3.5c0-3.9-3.2-7.1-7.1-7.1c-3.9,0-7.1,3.2-7.1,7.1s3.2,7.1,7.1,7.1
			c1.3,0,2.5-0.3,3.5-1l6,6c0.4,0.4,0.8,0.5,1.3,0.5c0.5,0,1-0.2,1.3-0.5C22.5,73.9,22.5,72.8,21.8,72z M9.7,68.4
			c-3.2,0-5.9-2.6-5.9-5.9s2.6-5.9,5.9-5.9c3.2,0,5.9,2.6,5.9,5.9S12.9,68.4,9.7,68.4z M20.9,73.8c-0.2,0.2-0.3,0.2-0.4,0.2
			s-0.3,0-0.4-0.2L14.2,68c0.3-0.3,0.6-0.6,0.9-0.9l5.8,5.8c0.2,0.2,0.2,0.3,0.2,0.4C21.1,73.4,21.1,73.6,20.9,73.8z"/>
	</g>
</g>
<g id="Mail_x5F_1_4_">
	<g>
		<path fill="#8CC63F" d="M20.9,5.3c-0.3-0.3-0.7-0.5-1.2-0.5H5.1C4.7,4.8,4.3,5,3.9,5.3C3.6,5.6,3.4,6.1,3.4,6.5v14.6
			c0,0.1,0,0.2,0,0.3c0,0,0,0,0,0.1c0,0.1,0,0.2,0.1,0.3c0,0,0,0,0,0c0.1,0.2,0.2,0.4,0.3,0.5c0.1,0.1,0.2,0.1,0.2,0.2c0,0,0,0,0,0
			c0.1,0.1,0.2,0.1,0.2,0.1c0,0,0,0,0,0c0.1,0,0.2,0.1,0.3,0.1c0,0,0,0,0.1,0c0.1,0,0.2,0,0.3,0h14.6c0.1,0,0.2,0,0.3,0
			c0,0,0,0,0.1,0c0.1,0,0.2,0,0.3-0.1c0,0,0,0,0,0c0.1,0,0.2-0.1,0.2-0.1c0,0,0,0,0,0c0.1-0.1,0.2-0.1,0.2-0.2
			c0.1-0.1,0.3-0.3,0.3-0.5c0,0,0,0,0,0c0-0.1,0.1-0.2,0.1-0.3c0,0,0,0,0-0.1c0-0.1,0-0.2,0-0.3V6.5C21.4,6.1,21.3,5.6,20.9,5.3z
			 M4.6,8.3l5.5,5.5l-5.5,5.5V8.3z M20.3,21.3c0,0.1-0.1,0.1-0.1,0.2c-0.1,0.1-0.1,0.1-0.2,0.1c-0.1,0-0.1,0-0.2,0H5.1
			c-0.1,0-0.2,0-0.2,0c-0.1,0-0.1-0.1-0.2-0.1c-0.1-0.1-0.1-0.1-0.1-0.2c0-0.1,0-0.1,0-0.2c0-0.1,0.1-0.3,0.2-0.4l6.1-6.1l0.4,0.4
			c0.3,0.3,0.7,0.5,1.2,0.5c0.5,0,0.9-0.2,1.2-0.5l0.4-0.4l6.1,6.1c0.1,0.1,0.2,0.2,0.2,0.4C20.3,21.2,20.3,21.3,20.3,21.3z
			 M20.3,19.3l-5.5-5.5l5.5-5.5V19.3z M20.2,6.9l-7.3,7.3c-0.2,0.2-0.6,0.2-0.8,0L4.7,6.9C4.6,6.8,4.6,6.7,4.6,6.5
			c0-0.2,0.1-0.3,0.2-0.4C4.8,6,5,5.9,5.1,5.9h14.6c0.1,0,0.3,0.1,0.4,0.2c0.1,0.1,0.2,0.2,0.2,0.4C20.3,6.7,20.3,6.8,20.2,6.9z"/>
	</g>
</g>
<g id="Shape_76_8_">
	<g>
		<path fill="#8CC63F" d="M11.4-33.6c2.8,0,5.1-2.8,5.1-6.2c0-3.4-2.3-6.2-5.1-6.2c-1.4,0-2.7,0.7-3.7,1.9c-0.9,1.2-1.4,2.7-1.4,4.3
			C6.3-36.4,8.6-33.6,11.4-33.6z M11.4-44.6c2.1,0,3.7,2.2,3.7,4.8S13.5-35,11.4-35c-2.1,0-3.7-2.2-3.7-4.8
			C7.7-42.5,9.4-44.6,11.4-44.6z M15.7-34.3c-0.4,0-0.7,0.3-0.7,0.7c0,0.4,0.3,0.7,0.7,0.7c2.3,0,4.2,1.9,4.2,4.2
			c0,0.3-0.2,0.5-0.5,0.5H3.5c-0.3,0-0.5-0.2-0.5-0.5c0-2.3,1.9-4.2,4.2-4.2c0.4,0,0.7-0.3,0.7-0.7c0-0.4-0.3-0.7-0.7-0.7
			c-3.1,0-5.6,2.5-5.6,5.6c0,1,0.9,1.9,1.9,1.9h15.9c1,0,1.9-0.9,1.9-1.9C21.3-31.8,18.8-34.3,15.7-34.3z M11.9-46.7
			c0.5-0.3,1-0.4,1.5-0.4c2.1,0,3.7,2.2,3.7,4.8c0,0.5-0.1,0.9-0.2,1.4c-0.1,0.4,0.1,0.7,0.5,0.8c0.1,0,0.1,0,0.2,0
			c0.3,0,0.6-0.2,0.7-0.5c0.1-0.6,0.2-1.1,0.2-1.7c0-3.4-2.3-6.2-5.1-6.2c-0.8,0-1.5,0.2-2.2,0.6c-0.3,0.2-0.4,0.6-0.2,0.9
			S11.6-46.6,11.9-46.7z M17.9-37c-0.4,0-0.7,0.3-0.7,0.7c0,0.4,0.3,0.7,0.7,0.7c2.3,0,4.1,1.9,4.1,4.3c0,0.1,0,0.2,0,0.2
			c-0.2,0.3,0,0.7,0.3,0.9c0.1,0,0.2,0.1,0.3,0.1c0.3,0,0.5-0.1,0.6-0.4c0.1-0.2,0.2-0.5,0.2-0.8C23.3-34.5,20.9-37,17.9-37z"/>
	</g>
</g>
<g id="Microphone_4_">
	<g>
		<path fill="#8CC63F" d="M12.4,121.5c2.6,0,4.8-2.1,4.8-4.8v-6.1c0-2.6-2.1-4.8-4.8-4.8c-2.6,0-4.8,2.1-4.8,4.8v6.1
			C7.7,119.4,9.8,121.5,12.4,121.5z M9.7,115.4H9v-1.4h0.7c0.4,0,0.7-0.3,0.7-0.7c0-0.4-0.3-0.7-0.7-0.7H9v-1.4h0.7
			c0.4,0,0.7-0.3,0.7-0.7s-0.3-0.7-0.7-0.7H9.1c0.3-1.5,1.7-2.7,3.3-2.7c1.6,0,3,1.2,3.3,2.7h-0.6c-0.4,0-0.7,0.3-0.7,0.7
			s0.3,0.7,0.7,0.7h0.7v1.4h-0.7c-0.4,0-0.7,0.3-0.7,0.7c0,0.4,0.3,0.7,0.7,0.7h0.7v1.4h-0.7c-0.4,0-0.7,0.3-0.7,0.7
			c0,0.4,0.3,0.7,0.7,0.7h0.7c0,1.9-1.5,3.4-3.4,3.4c-1.9,0-3.4-1.5-3.4-3.4h0.7c0.4,0,0.7-0.3,0.7-0.7
			C10.4,115.7,10.1,115.4,9.7,115.4z M12.4,118.8c0.4,0,0.7-0.3,0.7-0.7v-8.8c0-0.4-0.3-0.7-0.7-0.7c-0.4,0-0.7,0.3-0.7,0.7v8.8
			C11.8,118.5,12.1,118.8,12.4,118.8z M17.2,126.3h-2.7V124c3.1-0.9,5.4-3.8,5.4-7.2c0-0.4-0.3-0.7-0.7-0.7s-0.7,0.3-0.7,0.7
			c0,3.4-2.7,6.1-6.1,6.1c-3.4,0-6.1-2.7-6.1-6.1c0-0.4-0.3-0.7-0.7-0.7S5,116.4,5,116.8c0,3.4,2.3,6.3,5.4,7.2v2.3H7.7
			c-0.4,0-0.7,0.3-0.7,0.7c0,0.4,0.3,0.7,0.7,0.7h9.5c0.4,0,0.7-0.3,0.7-0.7C17.9,126.6,17.6,126.3,17.2,126.3z M13.1,126.3h-1.4
			v-2.1c0.2,0,0.4,0,0.7,0c0.2,0,0.5,0,0.7,0V126.3z"/>
	</g>
</g>
<g id="Music_x5F_Note_8_">
	<g>
		<path fill="#8CC63F" d="M20.3-202.9c-0.2-0.1-0.4-0.2-0.6-0.1l-9.5,2.7c-0.3,0.1-0.5,0.3-0.5,0.7v12.2c-0.6-0.4-1.3-0.7-2-0.7
			c-1.9,0-3.4,1.5-3.4,3.4s1.5,3.4,3.4,3.4s3.4-1.5,3.4-3.4v-11.7l8.1-2.3v8.6c-0.6-0.4-1.3-0.7-2-0.7c-1.9,0-3.4,1.5-3.4,3.4
			s1.5,3.4,3.4,3.4s3.4-1.5,3.4-3.4v-14.9C20.6-202.5,20.5-202.7,20.3-202.9z M7.7-182.6c-1.1,0-2-0.9-2-2c0-1.1,0.9-2,2-2
			s2,0.9,2,2C9.7-183.5,8.8-182.6,7.7-182.6z M17.2-185.3c-1.1,0-2-0.9-2-2s0.9-2,2-2s2,0.9,2,2S18.3-185.3,17.2-185.3z M19.2-200.1
			l-8.1,2.3v-1.3l8.1-2.3V-200.1z"/>
	</g>
</g>
<g id="Flame_4_">
	<g>
		<path fill="#8CC63F" d="M10.4-100c-0.3-0.1-0.6,0-0.8,0.2c-0.2,0.2-0.2,0.6,0,0.8c0,0,3,4.5-0.6,9c-4.1,5-1.9,9.5,0,11.4
			c0.1,0.1,0.3,0.2,0.5,0.2c0,0,0,0,0,0c0.4,0,0.7-0.3,0.7-0.7c0-0.1,0-0.2-0.1-0.3c-0.1-0.4-0.2-1.6-0.2-2.3c0-1.4,0.6-2.3,1.2-3
			c0,0.9,0.2,1.9,1,2.8c0.5,0.6,0.6,1.5,0.3,2.5c-0.1,0.3,0,0.6,0.2,0.8c0.2,0.2,0.6,0.2,0.8,0c1.2-0.9,5-4.3,5-9.7
			C18.2-96.9,10.5-99.9,10.4-100z M13.8-80.7c-0.1-0.7-0.3-1.3-0.8-1.9c-1.3-1.6-0.3-3.2-0.2-3.2c0.2-0.2,0.2-0.6,0-0.8
			c-0.1-0.2-0.3-0.3-0.5-0.3c-0.1,0-0.2,0-0.2,0c-0.1,0.1-3.4,1.4-3.5,5.2c-0.8-2-0.8-4.7,1.5-7.4c2.7-3.3,2.3-6.7,1.6-8.7
			c2.1,1.3,5.3,4.3,5.3,9.7C16.9-84.7,15.1-82.2,13.8-80.7z"/>
	</g>
</g>
<g id="Shape_76_5_">
	<g>
		<path fill="#8CC63F" d="M12.4-137.8c2.8,0,5.1-2.8,5.1-6.2c0-3.4-2.3-6.2-5.1-6.2c-1.4,0-2.7,0.7-3.7,1.9
			c-0.9,1.2-1.4,2.7-1.4,4.3C7.4-140.6,9.6-137.8,12.4-137.8z M12.4-148.9c2.1,0,3.7,2.2,3.7,4.8s-1.7,4.8-3.7,4.8
			c-2.1,0-3.7-2.2-3.7-4.8C8.7-146.7,10.4-148.9,12.4-148.9z M16.7-138.5c-0.4,0-0.7,0.3-0.7,0.7c0,0.4,0.3,0.7,0.7,0.7
			c2.3,0,4.2,1.9,4.2,4.2c0,0.3-0.2,0.5-0.5,0.5H4.5c-0.3,0-0.5-0.2-0.5-0.5c0-2.3,1.9-4.2,4.2-4.2c0.4,0,0.7-0.3,0.7-0.7
			c0-0.4-0.3-0.7-0.7-0.7c-3.1,0-5.6,2.5-5.6,5.6c0,1,0.9,1.9,1.9,1.9h15.9c1,0,1.9-0.9,1.9-1.9C22.3-136,19.8-138.5,16.7-138.5z"/>
	</g>
</g>
<g id="Setup_3_">
	<g>
		<path fill="#8CC63F" d="M7,219.9v-8.9c0-1.1-0.9-2-2-2s-2,0.9-2,2v8.9c-0.8,0.3-1.4,1-1.4,1.9v2.7c0,0.9,0.6,1.6,1.4,1.9v2.2
			c0,1.1,0.9,2,2,2s2-0.9,2-2v-2.2c0.8-0.3,1.4-1,1.4-1.9v-2.7C8.4,220.9,7.8,220.2,7,219.9z M4.3,210.9c0-0.4,0.3-0.7,0.7-0.7
			c0.4,0,0.7,0.3,0.7,0.7v8.8H4.3V210.9z M5.7,228.6c0,0.4-0.3,0.7-0.7,0.7c-0.4,0-0.7-0.3-0.7-0.7v-2h1.4V228.6z M7,224.5
			c0,0.4-0.3,0.7-0.7,0.7H3.6c-0.4,0-0.7-0.3-0.7-0.7v-2.7c0-0.4,0.3-0.7,0.7-0.7h2.7c0.4,0,0.7,0.3,0.7,0.7V224.5z M21.9,217.2
			v-6.2c0-1.1-0.9-2-2-2s-2,0.9-2,2v6.2c-0.8,0.3-1.4,1-1.4,1.9v2.7c0,0.9,0.6,1.6,1.4,1.9v4.9c0,1.1,0.9,2,2,2s2-0.9,2-2v-4.9
			c0.8-0.3,1.4-1,1.4-1.9v-2.7C23.3,218.2,22.7,217.5,21.9,217.2z M19.2,210.9c0-0.4,0.3-0.7,0.7-0.7c0.4,0,0.7,0.3,0.7,0.7v6.1
			h-1.4V210.9z M20.6,228.6c0,0.4-0.3,0.7-0.7,0.7c-0.4,0-0.7-0.3-0.7-0.7v-4.8h1.4V228.6z M21.9,221.8c0,0.4-0.3,0.7-0.7,0.7h-2.7
			c-0.4,0-0.7-0.3-0.7-0.7v-2.7c0-0.4,0.3-0.7,0.7-0.7h2.7c0.4,0,0.7,0.3,0.7,0.7V221.8z M14.5,211.7v-0.8c0-1.1-0.9-2-2-2
			c-1.1,0-2,0.9-2,2v0.8c-0.8,0.3-1.4,1-1.4,1.9v2.7c0,0.9,0.6,1.6,1.4,1.9v10.3c0,1.1,0.9,2,2,2c1.1,0,2-0.9,2-2v-10.3
			c0.8-0.3,1.4-1,1.4-1.9v-2.7C15.8,212.8,15.3,212,14.5,211.7z M11.8,210.9c0-0.4,0.3-0.7,0.7-0.7c0.4,0,0.7,0.3,0.7,0.7v0.7h-1.4
			V210.9z M13.1,228.6c0,0.4-0.3,0.7-0.7,0.7c-0.4,0-0.7-0.3-0.7-0.7v-10.2h1.4V228.6z M14.5,216.4c0,0.4-0.3,0.7-0.7,0.7h-2.7
			c-0.4,0-0.7-0.3-0.7-0.7v-2.7c0-0.4,0.3-0.7,0.7-0.7h2.7c0.4,0,0.7,0.3,0.7,0.7V216.4z"/>
	</g>
</g>
<g id="Smartphone_2_">
	<g>
		<path fill="#8CC63F" d="M17.4,157.4H7.5c-1,0-1.9,0.9-1.9,2v17.8c0,1.1,0.8,2,1.9,2h9.8c1,0,1.9-0.9,1.9-2v-17.8
			C19.2,158.3,18.4,157.4,17.4,157.4z M17.9,177.2c0,0.3-0.2,0.6-0.5,0.6H7.5c-0.3,0-0.5-0.3-0.5-0.6v-2.8h10.9V177.2z M17.9,173H7
			v-10.2h10.9V173z M17.9,161.5H7v-2.1c0-0.3,0.2-0.6,0.5-0.6h9.8c0.3,0,0.5,0.3,0.5,0.6V161.5z M12.4,177.1c0.6,0,1-0.5,1-1
			c0-0.6-0.5-1-1-1c-0.6,0-1,0.5-1,1C11.4,176.6,11.9,177.1,12.4,177.1z M13.8,159.5h-2.7c-0.4,0-0.7,0.3-0.7,0.7s0.3,0.7,0.7,0.7
			h2.7c0.4,0,0.7-0.3,0.7-0.7S14.2,159.5,13.8,159.5z"/>
	</g>
</g>
<g id="Bag_2_">
	<g>
		<path fill="#8CC63F" d="M20.6,266.4c0-0.4-0.3-0.6-0.7-0.6h-3.4v-1.4c0-2.2-1.8-4.1-4.1-4.1c-2.2,0-4.1,1.8-4.1,4.1v1.4H5
			c-0.4,0-0.6,0.3-0.7,0.6l-1.4,14.9c0,0.2,0,0.4,0.2,0.5c0.1,0.1,0.3,0.2,0.5,0.2h17.6c0.2,0,0.4-0.1,0.5-0.2
			c0.1-0.1,0.2-0.3,0.2-0.5L20.6,266.4z M9.7,264.5c0-1.5,1.2-2.7,2.7-2.7c1.5,0,2.7,1.2,2.7,2.7v1.4H9.7V264.5z M4.4,280.8
			l1.2-13.6h2.8v1.5c-0.4,0.2-0.7,0.7-0.7,1.2c0,0.7,0.6,1.4,1.4,1.4c0.7,0,1.4-0.6,1.4-1.4c0-0.5-0.3-0.9-0.7-1.2v-1.5h5.4v1.5
			c-0.4,0.2-0.7,0.7-0.7,1.2c0,0.7,0.6,1.4,1.4,1.4c0.7,0,1.4-0.6,1.4-1.4c0-0.5-0.3-0.9-0.7-1.2v-1.5h2.8l1.2,13.6H4.4z"/>
	</g>
</g>
<g>
</g>
<g>
</g>
<g>
</g>
<g>
</g>
<g>
</g>
<g>
</g>
<g>
</g>
<g>
</g>
<g>
</g>
<g>
</g>
<g>
</g>
<g>
</g>
<g>
</g>
<g>
</g>
<g>
</g>
</svg>
