<?xml version="1.0" encoding="utf-8"?>
<!-- Generator: Adobe Illustrator 18.0.0, SVG Export Plug-In . SVG Version: 6.00 Build 0)  -->
<!DOCTYPE svg PUBLIC "-//W3C//DTD SVG 1.1//EN" "http://www.w3.org/Graphics/SVG/1.1/DTD/svg11.dtd">
<svg version="1.1" id="Layer_1" xmlns="http://www.w3.org/2000/svg" xmlns:xlink="http://www.w3.org/1999/xlink" x="0px" y="0px"
	 viewBox="0 0 25.8 26.1" enable-background="new 0 0 25.8 26.1" xml:space="preserve">
<g id="Magnifying_x5F_Glass_16_">
	<g>
		<path fill="#8CC63F" d="M21.8,174.6l-6-6c0.6-1,1-2.3,1-3.5c0-3.9-3.2-7.1-7.1-7.1c-3.9,0-7.1,3.2-7.1,7.1s3.2,7.1,7.1,7.1
			c1.3,0,2.5-0.3,3.5-1l6,6c0.4,0.4,0.8,0.5,1.3,0.5c0.5,0,1-0.2,1.3-0.5C22.5,176.5,22.5,175.3,21.8,174.6z M9.7,170.9
			c-3.2,0-5.9-2.6-5.9-5.9s2.6-5.9,5.9-5.9c3.2,0,5.9,2.6,5.9,5.9S12.9,170.9,9.7,170.9z M20.9,176.3c-0.2,0.2-0.3,0.2-0.4,0.2
			s-0.3,0-0.4-0.2l-5.8-5.8c0.3-0.3,0.6-0.6,0.9-0.9l5.8,5.8c0.2,0.2,0.2,0.3,0.2,0.4C21.1,176,21.1,176.2,20.9,176.3z"/>
	</g>
</g>
<g id="Mail_x5F_1_4_">
	<g>
		<path fill="#8CC63F" d="M22.7,106.1c-0.4-0.4-0.9-0.6-1.4-0.6H3.6c-0.5,0-1.1,0.2-1.4,0.6c-0.4,0.4-0.6,0.9-0.6,1.4v17.6
			c0,0.1,0,0.3,0,0.4c0,0,0,0,0,0.1c0,0.1,0.1,0.2,0.1,0.3c0,0,0,0,0,0c0.1,0.2,0.2,0.4,0.4,0.6c0.1,0.1,0.2,0.2,0.3,0.2
			c0,0,0,0,0,0c0.1,0.1,0.2,0.1,0.3,0.2c0,0,0,0,0,0c0.1,0,0.2,0.1,0.3,0.1c0,0,0.1,0,0.1,0c0.1,0,0.3,0,0.4,0h17.6
			c0.1,0,0.3,0,0.4,0c0,0,0.1,0,0.1,0c0.1,0,0.2-0.1,0.3-0.1c0,0,0,0,0.1,0c0.1,0,0.2-0.1,0.3-0.2c0,0,0,0,0,0
			c0.1-0.1,0.2-0.1,0.3-0.2c0.2-0.2,0.3-0.4,0.4-0.6c0,0,0,0,0,0c0-0.1,0.1-0.2,0.1-0.3c0,0,0,0,0-0.1c0-0.1,0-0.3,0-0.4v-17.6
			C23.3,107,23.1,106.5,22.7,106.1z M2.9,109.7l6.6,6.6L2.9,123V109.7z M21.9,125.5c0,0.1-0.1,0.2-0.1,0.2c-0.1,0.1-0.1,0.1-0.2,0.1
			c-0.1,0-0.2,0.1-0.3,0.1H3.6c-0.1,0-0.2,0-0.3-0.1c-0.1,0-0.2-0.1-0.2-0.1c-0.1-0.1-0.1-0.1-0.1-0.2c0-0.1-0.1-0.2-0.1-0.3
			c0-0.2,0.1-0.3,0.2-0.5l7.4-7.4l0.5,0.5c0.4,0.4,0.9,0.6,1.4,0.6c0.5,0,1.1-0.2,1.4-0.6l0.5-0.5l7.4,7.4c0.1,0.1,0.2,0.3,0.2,0.5
			C21.9,125.3,21.9,125.4,21.9,125.5z M21.9,123l-6.6-6.6l6.6-6.6V123z M21.7,108l-8.8,8.8c-0.3,0.3-0.7,0.3-1,0L3.1,108
			c-0.1-0.1-0.2-0.3-0.2-0.5c0-0.2,0.1-0.4,0.2-0.5c0.1-0.1,0.3-0.2,0.5-0.2h17.6c0.2,0,0.4,0.1,0.5,0.2c0.1,0.1,0.2,0.3,0.2,0.5
			C21.9,107.7,21.9,107.9,21.7,108z"/>
	</g>
</g>
<g id="Shape_76_8_">
	<g>
		<path fill="#8CC63F" d="M11.4,69c2.8,0,5.1-2.8,5.1-6.2c0-3.4-2.3-6.2-5.1-6.2c-1.4,0-2.7,0.7-3.7,1.9c-0.9,1.2-1.4,2.7-1.4,4.3
			C6.3,66.2,8.6,69,11.4,69z M11.4,57.9c2.1,0,3.7,2.2,3.7,4.8c0,2.7-1.7,4.8-3.7,4.8c-2.1,0-3.7-2.2-3.7-4.8
			C7.7,60.1,9.4,57.9,11.4,57.9z M15.7,68.3c-0.4,0-0.7,0.3-0.7,0.7c0,0.4,0.3,0.7,0.7,0.7c2.3,0,4.2,1.9,4.2,4.2
			c0,0.3-0.2,0.5-0.5,0.5H3.5c-0.3,0-0.5-0.2-0.5-0.5c0-2.3,1.9-4.2,4.2-4.2c0.4,0,0.7-0.3,0.7-0.7c0-0.4-0.3-0.7-0.7-0.7
			c-3.1,0-5.6,2.5-5.6,5.6c0,1,0.9,1.9,1.9,1.9h15.9c1,0,1.9-0.9,1.9-1.9C21.3,70.8,18.8,68.3,15.7,68.3z M11.9,55.8
			c0.5-0.3,1-0.4,1.5-0.4c2.1,0,3.7,2.2,3.7,4.8c0,0.5-0.1,0.9-0.2,1.4c-0.1,0.4,0.1,0.7,0.5,0.8c0.1,0,0.1,0,0.2,0
			c0.3,0,0.6-0.2,0.7-0.5c0.1-0.6,0.2-1.1,0.2-1.7c0-3.4-2.3-6.2-5.1-6.2c-0.8,0-1.5,0.2-2.2,0.6c-0.3,0.2-0.4,0.6-0.2,0.9
			S11.6,56,11.9,55.8z M17.9,65.6c-0.4,0-0.7,0.3-0.7,0.7c0,0.4,0.3,0.7,0.7,0.7c2.3,0,4.1,1.9,4.1,4.3c0,0.1,0,0.2,0,0.2
			c-0.2,0.3,0,0.7,0.3,0.9c0.1,0,0.2,0.1,0.3,0.1c0.3,0,0.5-0.1,0.6-0.4c0.1-0.2,0.2-0.5,0.2-0.8C23.3,68.1,20.9,65.6,17.9,65.6z"/>
	</g>
</g>
<g id="Microphone_4_">
	<g>
		<path fill="#8CC63F" d="M12.4,224.1c2.6,0,4.8-2.1,4.8-4.8v-6.1c0-2.6-2.1-4.8-4.8-4.8c-2.6,0-4.8,2.1-4.8,4.8v6.1
			C7.7,222,9.8,224.1,12.4,224.1z M9.7,218H9v-1.4h0.7c0.4,0,0.7-0.3,0.7-0.7c0-0.4-0.3-0.7-0.7-0.7H9v-1.4h0.7
			c0.4,0,0.7-0.3,0.7-0.7s-0.3-0.7-0.7-0.7H9.1c0.3-1.5,1.7-2.7,3.3-2.7c1.6,0,3,1.2,3.3,2.7h-0.6c-0.4,0-0.7,0.3-0.7,0.7
			s0.3,0.7,0.7,0.7h0.7v1.4h-0.7c-0.4,0-0.7,0.3-0.7,0.7c0,0.4,0.3,0.7,0.7,0.7h0.7v1.4h-0.7c-0.4,0-0.7,0.3-0.7,0.7
			c0,0.4,0.3,0.7,0.7,0.7h0.7c0,1.9-1.5,3.4-3.4,3.4c-1.9,0-3.4-1.5-3.4-3.4h0.7c0.4,0,0.7-0.3,0.7-0.7C10.4,218.3,10.1,218,9.7,218
			z M12.4,221.4c0.4,0,0.7-0.3,0.7-0.7v-8.8c0-0.4-0.3-0.7-0.7-0.7c-0.4,0-0.7,0.3-0.7,0.7v8.8C11.8,221.1,12.1,221.4,12.4,221.4z
			 M17.2,228.8h-2.7v-2.3c3.1-0.9,5.4-3.8,5.4-7.2c0-0.4-0.3-0.7-0.7-0.7s-0.7,0.3-0.7,0.7c0,3.4-2.7,6.1-6.1,6.1
			c-3.4,0-6.1-2.7-6.1-6.1c0-0.4-0.3-0.7-0.7-0.7S5,219,5,219.3c0,3.4,2.3,6.3,5.4,7.2v2.3H7.7c-0.4,0-0.7,0.3-0.7,0.7
			c0,0.4,0.3,0.7,0.7,0.7h9.5c0.4,0,0.7-0.3,0.7-0.7C17.9,229.1,17.6,228.8,17.2,228.8z M13.1,228.8h-1.4v-2.1c0.2,0,0.4,0,0.7,0
			c0.2,0,0.5,0,0.7,0V228.8z"/>
	</g>
</g>
<g id="Music_x5F_Note_8_">
	<g>
		<path fill="#8CC63F" d="M20.3-100.3c-0.2-0.1-0.4-0.2-0.6-0.1l-9.5,2.7c-0.3,0.1-0.5,0.3-0.5,0.7v12.2c-0.6-0.4-1.3-0.7-2-0.7
			c-1.9,0-3.4,1.5-3.4,3.4s1.5,3.4,3.4,3.4s3.4-1.5,3.4-3.4v-11.7l8.1-2.3v8.6c-0.6-0.4-1.3-0.7-2-0.7c-1.9,0-3.4,1.5-3.4,3.4
			s1.5,3.4,3.4,3.4s3.4-1.5,3.4-3.4v-14.9C20.6-100,20.5-100.2,20.3-100.3z M7.7-80.1c-1.1,0-2-0.9-2-2c0-1.1,0.9-2,2-2s2,0.9,2,2
			C9.7-81,8.8-80.1,7.7-80.1z M17.2-82.8c-1.1,0-2-0.9-2-2s0.9-2,2-2s2,0.9,2,2S18.3-82.8,17.2-82.8z M19.2-97.6l-8.1,2.3v-1.3
			l8.1-2.3V-97.6z"/>
	</g>
</g>
<g id="Flame_4_">
	<g>
		<path fill="#8CC63F" d="M10.4,2.6c-0.3-0.1-0.6,0-0.8,0.2C9.4,3,9.4,3.4,9.6,3.6c0,0,3,4.5-0.6,9c-4.1,5-1.9,9.5,0,11.4
			c0.1,0.1,0.3,0.2,0.5,0.2c0,0,0,0,0,0c0.4,0,0.7-0.3,0.7-0.7c0-0.1,0-0.2-0.1-0.3C10,22.8,9.8,21.6,9.8,21c0-1.4,0.6-2.3,1.2-3
			c0,0.9,0.2,1.9,1,2.8c0.5,0.6,0.6,1.5,0.3,2.5c-0.1,0.3,0,0.6,0.2,0.8c0.2,0.2,0.6,0.2,0.8,0c1.2-0.9,5-4.3,5-9.7
			C18.2,5.7,10.5,2.6,10.4,2.6z M13.8,21.8c-0.1-0.7-0.3-1.3-0.8-1.9c-1.3-1.6-0.3-3.2-0.2-3.2c0.2-0.2,0.2-0.6,0-0.8
			c-0.1-0.2-0.3-0.3-0.5-0.3c-0.1,0-0.2,0-0.2,0c-0.1,0.1-3.4,1.4-3.5,5.2c-0.8-2-0.8-4.7,1.5-7.4c2.7-3.3,2.3-6.7,1.6-8.7
			c2.1,1.3,5.3,4.3,5.3,9.7C16.9,17.9,15.1,20.4,13.8,21.8z"/>
	</g>
</g>
<g id="Shape_76_5_">
	<g>
		<path fill="#8CC63F" d="M12.4-35.3c2.8,0,5.1-2.8,5.1-6.2c0-3.4-2.3-6.2-5.1-6.2c-1.4,0-2.7,0.7-3.7,1.9c-0.9,1.2-1.4,2.7-1.4,4.3
			C7.4-38.1,9.6-35.3,12.4-35.3z M12.4-46.3c2.1,0,3.7,2.2,3.7,4.8s-1.7,4.8-3.7,4.8c-2.1,0-3.7-2.2-3.7-4.8
			C8.7-44.2,10.4-46.3,12.4-46.3z M16.7-36c-0.4,0-0.7,0.3-0.7,0.7c0,0.4,0.3,0.7,0.7,0.7c2.3,0,4.2,1.9,4.2,4.2
			c0,0.3-0.2,0.5-0.5,0.5H4.5c-0.3,0-0.5-0.2-0.5-0.5c0-2.3,1.9-4.2,4.2-4.2c0.4,0,0.7-0.3,0.7-0.7c0-0.4-0.3-0.7-0.7-0.7
			c-3.1,0-5.6,2.5-5.6,5.6c0,1,0.9,1.9,1.9,1.9h15.9c1,0,1.9-0.9,1.9-1.9C22.3-33.5,19.8-36,16.7-36z"/>
	</g>
</g>
<g id="Setup_3_">
	<g>
		<path fill="#8CC63F" d="M7,322.4v-8.9c0-1.1-0.9-2-2-2s-2,0.9-2,2v8.9c-0.8,0.3-1.4,1-1.4,1.9v2.7c0,0.9,0.6,1.6,1.4,1.9v2.2
			c0,1.1,0.9,2,2,2s2-0.9,2-2V329c0.8-0.3,1.4-1,1.4-1.9v-2.7C8.4,323.5,7.8,322.7,7,322.4z M4.3,313.5c0-0.4,0.3-0.7,0.7-0.7
			c0.4,0,0.7,0.3,0.7,0.7v8.8H4.3V313.5z M5.7,331.1c0,0.4-0.3,0.7-0.7,0.7c-0.4,0-0.7-0.3-0.7-0.7v-2h1.4V331.1z M7,327.1
			c0,0.4-0.3,0.7-0.7,0.7H3.6c-0.4,0-0.7-0.3-0.7-0.7v-2.7c0-0.4,0.3-0.7,0.7-0.7h2.7c0.4,0,0.7,0.3,0.7,0.7V327.1z M21.9,319.7
			v-6.2c0-1.1-0.9-2-2-2s-2,0.9-2,2v6.2c-0.8,0.3-1.4,1-1.4,1.9v2.7c0,0.9,0.6,1.6,1.4,1.9v4.9c0,1.1,0.9,2,2,2s2-0.9,2-2v-4.9
			c0.8-0.3,1.4-1,1.4-1.9v-2.7C23.3,320.8,22.7,320,21.9,319.7z M19.2,313.5c0-0.4,0.3-0.7,0.7-0.7c0.4,0,0.7,0.3,0.7,0.7v6.1h-1.4
			V313.5z M20.6,331.1c0,0.4-0.3,0.7-0.7,0.7c-0.4,0-0.7-0.3-0.7-0.7v-4.8h1.4V331.1z M21.9,324.4c0,0.4-0.3,0.7-0.7,0.7h-2.7
			c-0.4,0-0.7-0.3-0.7-0.7v-2.7c0-0.4,0.3-0.7,0.7-0.7h2.7c0.4,0,0.7,0.3,0.7,0.7V324.4z M14.5,314.3v-0.8c0-1.1-0.9-2-2-2
			c-1.1,0-2,0.9-2,2v0.8c-0.8,0.3-1.4,1-1.4,1.9v2.7c0,0.9,0.6,1.6,1.4,1.9v10.3c0,1.1,0.9,2,2,2c1.1,0,2-0.9,2-2v-10.3
			c0.8-0.3,1.4-1,1.4-1.9v-2.7C15.8,315.3,15.3,314.6,14.5,314.3z M11.8,313.5c0-0.4,0.3-0.7,0.7-0.7c0.4,0,0.7,0.3,0.7,0.7v0.7
			h-1.4V313.5z M13.1,331.1c0,0.4-0.3,0.7-0.7,0.7c-0.4,0-0.7-0.3-0.7-0.7V321h1.4V331.1z M14.5,318.9c0,0.4-0.3,0.7-0.7,0.7h-2.7
			c-0.4,0-0.7-0.3-0.7-0.7v-2.7c0-0.4,0.3-0.7,0.7-0.7h2.7c0.4,0,0.7,0.3,0.7,0.7V318.9z"/>
	</g>
</g>
<g id="Smartphone_2_">
	<g>
		<path fill="#8CC63F" d="M17.4,260H7.5c-1,0-1.9,0.9-1.9,2v17.8c0,1.1,0.8,2,1.9,2h9.8c1,0,1.9-0.9,1.9-2v-17.8
			C19.2,260.8,18.4,260,17.4,260z M17.9,279.7c0,0.3-0.2,0.6-0.5,0.6H7.5c-0.3,0-0.5-0.3-0.5-0.6v-2.8h10.9V279.7z M17.9,275.6H7
			v-10.2h10.9V275.6z M17.9,264H7v-2.1c0-0.3,0.2-0.6,0.5-0.6h9.8c0.3,0,0.5,0.3,0.5,0.6V264z M12.4,279.7c0.6,0,1-0.5,1-1
			c0-0.6-0.5-1-1-1c-0.6,0-1,0.5-1,1C11.4,279.2,11.9,279.7,12.4,279.7z M13.8,262h-2.7c-0.4,0-0.7,0.3-0.7,0.7s0.3,0.7,0.7,0.7h2.7
			c0.4,0,0.7-0.3,0.7-0.7S14.2,262,13.8,262z"/>
	</g>
</g>
<g id="Bag_2_">
	<g>
		<path fill="#8CC63F" d="M20.6,369c0-0.4-0.3-0.6-0.7-0.6h-3.4V367c0-2.2-1.8-4.1-4.1-4.1c-2.2,0-4.1,1.8-4.1,4.1v1.4H5
			c-0.4,0-0.6,0.3-0.7,0.6l-1.4,14.9c0,0.2,0,0.4,0.2,0.5c0.1,0.1,0.3,0.2,0.5,0.2h17.6c0.2,0,0.4-0.1,0.5-0.2
			c0.1-0.1,0.2-0.3,0.2-0.5L20.6,369z M9.7,367c0-1.5,1.2-2.7,2.7-2.7c1.5,0,2.7,1.2,2.7,2.7v1.4H9.7V367z M4.4,383.3l1.2-13.6h2.8
			v1.5c-0.4,0.2-0.7,0.7-0.7,1.2c0,0.7,0.6,1.4,1.4,1.4c0.7,0,1.4-0.6,1.4-1.4c0-0.5-0.3-0.9-0.7-1.2v-1.5h5.4v1.5
			c-0.4,0.2-0.7,0.7-0.7,1.2c0,0.7,0.6,1.4,1.4,1.4c0.7,0,1.4-0.6,1.4-1.4c0-0.5-0.3-0.9-0.7-1.2v-1.5h2.8l1.2,13.6H4.4z"/>
	</g>
</g>
<g>
</g>
<g>
</g>
<g>
</g>
<g>
</g>
<g>
</g>
<g>
</g>
<g>
</g>
<g>
</g>
<g>
</g>
<g>
</g>
<g>
</g>
<g>
</g>
<g>
</g>
<g>
</g>
<g>
</g>
</svg>
