<?xml version="1.0" encoding="utf-8"?>
<!-- Generator: Adobe Illustrator 18.0.0, SVG Export Plug-In . SVG Version: 6.00 Build 0)  -->
<!DOCTYPE svg PUBLIC "-//W3C//DTD SVG 1.1//EN" "http://www.w3.org/Graphics/SVG/1.1/DTD/svg11.dtd">
<svg version="1.1" id="Layer_1" xmlns="http://www.w3.org/2000/svg" xmlns:xlink="http://www.w3.org/1999/xlink" x="0px" y="0px"
	 viewBox="0 0 60 60" enable-background="new 0 0 60 60" xml:space="preserve">
<g id="t6RQZQ.tif">
	<g>
		<path fill="#4D4D4D" d="M54.6,28.4c0-1-0.5-1.8-1.5-2.1c-0.6-0.2-0.6-0.5-0.6-1c0.1-3.4-0.5-6.6-2.6-9.3c-1.4-1.7-2.9-3.3-4.5-4.8
			C39.3,5.6,32,4.1,24.1,6.2c-2.2,0.6-4.3,1.6-6.1,2.9c-2.2,1.5-4.2,3.4-6.1,5.3c-3,3-4.1,6.7-4,10.9c0,0.5,0,0.9-0.7,1.1
			c-0.6,0.2-0.9,0.9-1.4,1.4v15.1c0.5,1.1,1.5,1.4,2.6,1.8c1.5,0.5,2.9,0.6,4.4,0.6c0.3,0,0.6,0.4,0.8,0.7c2.1,3.4,4.7,6.1,8.3,7.8
			c1.8,0.8,3.8,1.3,5.7,1.9c0.2,0.1,0.5,0.1,0.7,0.2h3.4c1.3-0.3,2.5-0.5,3.8-0.9c4.7-1.6,8.3-4.6,10.8-8.8c0.4-0.7,0.8-1.1,1.6-0.9
			c1.8,0.4,3.5-0.5,5.3-0.9c0.9-0.2,1.4-1.1,1.4-2.1C54.6,37.6,54.6,33,54.6,28.4z M42.9,46.1c-3,3.6-6.7,6-11.4,6.5
			c-4.7,0.4-8.8-1.1-12.3-4.3c-1-0.9-1.8-1.9-2.7-3c-1-1.3-1.6-2.6-1.5-4.4c0.2-2.3,0-4.6,0-7c0-0.3,0-0.7,0-1c0.3,0,0.6-0.1,0.8,0
			c2,0.3,3.5-0.4,5-1.7c1.6-1.4,3.4-2.6,5.3-3.8c-1,1.8-1.9,3.6-2.9,5.5c7.4,1.3,14.6,2.1,22,0.6c0,0.3,0.1,0.6,0.1,0.9
			c0,1.3-0.1,2.7,0,4C45.8,41.5,44.7,43.9,42.9,46.1z M49.1,25.5c-3.6-8.2-10.1-12-18.7-12.1c-8.6-0.1-15.3,3.3-19.2,11.7
			c0.2-4.8,1.5-8.8,4.9-12c3-2.7,6.6-4,10.5-4.5C30.9,8.1,35,8.3,39,9.9c6.1,2.5,9.3,7.1,10.1,13.6C49.2,24.1,49.2,24.8,49.1,25.5z"
			/>
		<path fill="#4D4D4D" d="M35.5,46.6c-3.2,3.4-8.1,3.4-10.9,0H35.5z"/>
		<path fill="#4D4D4D" d="M23.4,37.3c-1.4,0-2.6,1.1-2.7,2.5c0,1.4,1.1,2.6,2.6,2.6c1.4,0,2.6-1.1,2.7-2.6
			C26,38.5,24.9,37.3,23.4,37.3z"/>
		<path fill="#4D4D4D" d="M36.9,37.3c-1.5,0-2.6,1.1-2.6,2.6c0,1.4,1.1,2.6,2.6,2.6c1.4,0,2.6-1.1,2.6-2.6
			C39.4,38.4,38.3,37.3,36.9,37.3z"/>
	</g>
</g>
<g>
</g>
<g>
</g>
<g>
</g>
<g>
</g>
<g>
</g>
<g>
</g>
<g>
</g>
<g>
</g>
<g>
</g>
<g>
</g>
<g>
</g>
<g>
</g>
<g>
</g>
<g>
</g>
<g>
</g>
</svg>
