<?xml version="1.0" encoding="utf-8"?>
<!-- Generator: Adobe Illustrator 18.0.0, SVG Export Plug-In . SVG Version: 6.00 Build 0)  -->
<!DOCTYPE svg PUBLIC "-//W3C//DTD SVG 1.1//EN" "http://www.w3.org/Graphics/SVG/1.1/DTD/svg11.dtd">
<svg version="1.1" id="Layer_1" xmlns="http://www.w3.org/2000/svg" xmlns:xlink="http://www.w3.org/1999/xlink" x="0px" y="0px"
	 viewBox="0 0 150 150" enable-background="new 0 0 150 150" xml:space="preserve">
<g>
	<path fill="#8BC540" d="M148.5,133.8c0,8.1-6.6,14.7-14.7,14.7H16.2c-8.1,0-14.7-6.6-14.7-14.7V16.2c0-8.1,6.6-14.7,14.7-14.7
		h117.6c8.1,0,14.7,6.6,14.7,14.7V133.8z"/>
	<path opacity="0.28" fill="#333333" d="M148.5,40.1v93.7c0,8.1-6.6,14.7-14.7,14.7H91.6l-31.2-8.9c4.7,1.1,9.6,1.7,14.6,1.7
		c7.4,0,14.5-1.2,21.1-3.6c11.8-4.1,22-11.5,29.6-21.1c8.7-11,13.9-24.9,13.9-40c0-25.2-14.5-47-35.5-57.7l0.2-0.4L148.5,40.1z"/>
	<g>
		<path fill="#333333" d="M75,17.4c-32.6,0-59.2,26.5-59.2,59.2s26.5,59.2,59.2,59.2c32.6,0,59.2-26.5,59.2-59.2S107.6,17.4,75,17.4
			z M75,101.3c-13.6,0-24.7-11.1-24.7-24.7S61.4,51.9,75,51.9c13.6,0,24.7,11.1,24.7,24.7S88.6,101.3,75,101.3z"/>
		<path fill="#333333" d="M75,12c-35.6,0-64.6,29-64.6,64.6c0,35.6,29,64.6,64.6,64.6c35.6,0,64.6-29,64.6-64.6
			C139.6,41,110.6,12,75,12z M75,137.6c-33.6,0-61-27.4-61-61c0-33.6,27.4-61,61-61c33.6,0,61,27.4,61,61
			C136,110.3,108.7,137.6,75,137.6z"/>
	</g>
	<path opacity="0.34" fill="#1A1A1A" d="M75,101.3c-5.4,0-10.3-1.7-14.4-4.6l31.1-38.3c4.9,4.5,8,11,8,18.2
		C99.7,90.3,88.7,101.3,75,101.3z"/>
	<path fill="#333333" d="M104.1,18.9C95.4,14.5,85.5,12,75,12c-35.6,0-64.6,29-64.6,64.6c0,27.3,17,50.7,40.9,60.1
		c1.1,0.4,2.2,0.8,3.3,1.2c1.9,0.6,3.9,1.2,5.9,1.7c0,0,0,0,0,0c4.7,1.1,9.6,1.7,14.6,1.7c7.4,0,14.5-1.2,21.1-3.6
		c11.8-4.1,22-11.5,29.6-21.1c8.7-11,13.9-24.9,13.9-40C139.6,51.4,125.2,29.6,104.1,18.9z M92.9,134.9c-5.7,1.7-11.7,2.7-17.9,2.7
		c-7.8,0-15.3-1.5-22.2-4.2c-22.7-8.9-38.8-31-38.8-56.8c0-33.6,27.4-61,61-61c9.9,0,19.3,2.4,27.6,6.6
		C122.4,32.3,136,52.9,136,76.6c0,9.9-2.4,19.3-6.6,27.6C122,118.8,108.8,130,92.9,134.9z"/>
	<circle fill="#333333" cx="75" cy="76.6" r="32.4"/>
	<g id="Play_10_">
		<g>
			<path fill="#8BC540" d="M88.2,74.2L66.6,63.4c0,0-0.1,0-0.1,0c-0.2-0.1-0.3-0.1-0.5-0.1c-0.2,0-0.3-0.1-0.5-0.1c0,0-0.1,0-0.1,0
				c-0.1,0-0.3,0.1-0.4,0.1c-0.2,0-0.4,0-0.6,0.1c-0.2,0.1-0.3,0.2-0.5,0.3c-0.1,0.1-0.3,0.2-0.4,0.3c-0.1,0.1-0.3,0.3-0.4,0.5
				c-0.1,0.1-0.2,0.2-0.2,0.3c0,0,0,0.1,0,0.1c-0.1,0.2-0.1,0.3-0.1,0.5c0,0.2-0.1,0.4-0.1,0.5c0,0,0,0.1,0,0.1v21.6
				c0,0,0,0.1,0,0.1c0,0.2,0.1,0.4,0.1,0.5c0,0.2,0.1,0.4,0.1,0.5c0,0,0,0.1,0,0.1c0.1,0.3,0.3,0.5,0.5,0.7c0,0,0.1,0.1,0.1,0.1
				c0.2,0.2,0.4,0.3,0.6,0.4c0.1,0,0.2,0.1,0.2,0.1c0.3,0.1,0.6,0.2,0.9,0.2c0,0,0,0,0,0h0c0,0,0,0,0,0c0,0,0,0,0,0
				c0.4,0,0.8-0.1,1.1-0.3c0,0,0.1,0,0.1,0L88.2,79c0.9-0.5,1.5-1.4,1.5-2.4S89.2,74.7,88.2,74.2z M68.1,83V70.2L81,76.6L68.1,83z"
				/>
		</g>
	</g>
	<path fill="#8BC540" d="M75,110.2c-18.5,0-33.6-15.1-33.6-33.6S56.5,43,75,43s33.6,15.1,33.6,33.6S93.5,110.2,75,110.2z M75,45.5
		c-17.2,0-31.1,14-31.1,31.1s14,31.1,31.1,31.1s31.1-14,31.1-31.1S92.2,45.5,75,45.5z"/>
</g>
<g>
</g>
<g>
</g>
<g>
</g>
<g>
</g>
<g>
</g>
<g>
</g>
<g>
</g>
<g>
</g>
<g>
</g>
<g>
</g>
<g>
</g>
<g>
</g>
<g>
</g>
<g>
</g>
<g>
</g>
</svg>
