<?xml version="1.0" encoding="utf-8"?>
<!-- Generator: Adobe Illustrator 18.0.0, SVG Export Plug-In . SVG Version: 6.00 Build 0)  -->
<!DOCTYPE svg PUBLIC "-//W3C//DTD SVG 1.1//EN" "http://www.w3.org/Graphics/SVG/1.1/DTD/svg11.dtd">
<svg version="1.1" id="Layer_1" xmlns="http://www.w3.org/2000/svg" xmlns:xlink="http://www.w3.org/1999/xlink" x="0px" y="0px"
	 viewBox="0 0 166.2 28.1" enable-background="new 0 0 166.2 28.1" xml:space="preserve">
<path fill="#666666" d="M121.4,26.5V11.5h-3V9.6h8.9v1.9h-3v15.1H121.4z"/>
<path fill="#666666" d="M133.4,9.6h3v13.2c0,1-0.3,1.9-0.9,2.7c-0.6,0.7-1.3,1.1-2.1,1.1h-3c-0.8,0-1.5-0.4-2.1-1.1
	c-0.6-0.7-0.9-1.6-0.9-2.7V9.6h3v13.2c0,0.5,0.1,1,0.4,1.3c0.3,0.4,0.6,0.6,1,0.6c0.4,0,0.8-0.2,1.1-0.6c0.3-0.4,0.4-0.8,0.4-1.3
	V9.6z"/>
<path fill="#666666" d="M137.9,26.5V9.6h0.7l8.2,9.4V9.6h1.5v16.9h-0.7l-8.2-9.4v9.4H137.9z"/>
<path fill="#666666" d="M149.8,26.5V9.6h7.4v1.9h-4.5v5.6h3V19h-3v5.6h4.5v1.9H149.8z"/>
<path fill="#666666" d="M166.2,13.4h-1.5c-0.1-1.3-0.6-1.9-1.4-1.9c-0.5,0-0.9,0.2-1.2,0.5c-0.3,0.3-0.4,0.8-0.4,1.4
	c0,0.5,0.1,0.9,0.4,1.3l3.2,4.5c0.6,0.8,0.9,1.7,0.9,2.7v0.9c0,1-0.3,1.9-0.9,2.7c-0.6,0.7-1.3,1.1-2.1,1.1h-1.5
	c-1,0-1.7-0.3-2.2-0.9c-0.5-0.6-0.7-1.6-0.7-2.8h1.5c0,0.1,0,0.2,0,0.3c0,0.5,0.2,0.9,0.5,1.2c0.3,0.3,0.6,0.4,1,0.4
	c0.5,0,0.9-0.2,1.1-0.5c0.2-0.3,0.3-0.8,0.3-1.4c0-0.5-0.1-0.9-0.4-1.3l-3.2-4.5c-0.6-0.8-0.9-1.7-0.9-2.7v-0.9c0-1,0.3-1.9,0.9-2.7
	c0.6-0.7,1.3-1.1,2.1-1.1h1.5C165.1,9.6,166.1,10.8,166.2,13.4z"/>
<path fill="#808080" d="M5,26.5V2.9h8.4c1.1,0,2.1,0.5,2.9,1.6c0.8,1,1.2,2.3,1.2,3.7v1.3c0,1.6-0.3,2.8-1,3.6
	c-0.7,0.9-1.7,1.4-3.1,1.6c1.4,0,2.4,0.5,3.1,1.6c0.7,1.1,1,2.3,1,3.7v1.3c0,1.4-0.4,2.7-1.2,3.7c-0.8,1-1.8,1.6-2.9,1.6H5z
	 M9.2,13.4h2.1c0.6,0,1.1-0.3,1.5-0.8c0.4-0.5,0.6-1.1,0.6-1.8V8.2c0-0.7-0.2-1.4-0.6-1.9c-0.4-0.5-0.9-0.8-1.5-0.8H9.2V13.4z
	 M9.2,23.9h2.1c0.6,0,1.1-0.3,1.5-0.8c0.4-0.5,0.6-1.1,0.6-1.9v-2.6c0-1.7-0.7-2.6-2.1-2.6H9.2V23.9z"/>
<path fill="#808080" d="M23.9,2.9h4.2c1.1,0,2.1,0.5,2.9,1.6c0.8,1,1.2,2.3,1.2,3.7v13.1c0,1.4-0.4,2.7-1.2,3.7
	c-0.8,1-1.8,1.6-2.9,1.6h-4.2c-1.1,0-2.1-0.5-3-1.5c-0.8-1-1.2-2.3-1.2-3.7V8.2c0-1.4,0.4-2.7,1.2-3.7C21.8,3.5,22.8,2.9,23.9,2.9z
	 M23.9,8.2v13.1c0,0.7,0.2,1.3,0.6,1.9c0.4,0.5,0.9,0.8,1.5,0.8c0.6,0,1.1-0.3,1.5-0.8c0.4-0.5,0.6-1.1,0.6-1.9V8.2
	c0-0.7-0.2-1.4-0.6-1.9c-0.4-0.5-0.9-0.8-1.5-0.8c-0.6,0-1.1,0.3-1.5,0.8C24.1,6.8,23.9,7.5,23.9,8.2z"/>
<path fill="#808080" d="M38.7,2.9h4.2c1.1,0,2.1,0.5,2.9,1.6c0.8,1,1.2,2.3,1.2,3.7v13.1c0,1.4-0.4,2.7-1.2,3.7
	c-0.8,1-1.8,1.6-2.9,1.6h-4.2c-1.1,0-2.1-0.5-3-1.5c-0.8-1-1.2-2.3-1.2-3.7V8.2c0-1.4,0.4-2.7,1.2-3.7C36.6,3.5,37.5,2.9,38.7,2.9z
	 M38.7,8.2v13.1c0,0.7,0.2,1.3,0.6,1.9c0.4,0.5,0.9,0.8,1.5,0.8c0.6,0,1.1-0.3,1.5-0.8c0.4-0.5,0.6-1.1,0.6-1.9V8.2
	c0-0.7-0.2-1.4-0.6-1.9c-0.4-0.5-0.9-0.8-1.5-0.8c-0.6,0-1.1,0.3-1.5,0.8C38.9,6.8,38.7,7.5,38.7,8.2z"/>
<path fill="#808080" d="M49.2,26.5V2.9h1l8.9,11.2l8.9-11.2h2.1v23.6H66V12.1l-7.3,9.2l-7.3-9.2v14.4H49.2z"/>
<path fill="#808080" d="M72.4,26.5V2.9h8.4c1.1,0,2.1,0.5,2.9,1.6c0.8,1,1.2,2.3,1.2,3.7v1.3c0,1.6-0.3,2.8-1,3.6
	c-0.7,0.9-1.7,1.4-3.1,1.6c1.4,0,2.4,0.5,3.1,1.6c0.7,1.1,1,2.3,1,3.7v1.3c0,1.4-0.4,2.7-1.2,3.7c-0.8,1-1.8,1.6-2.9,1.6H72.4z
	 M76.6,13.4h2.1c0.6,0,1.1-0.3,1.5-0.8c0.4-0.5,0.6-1.1,0.6-1.8V8.2c0-0.7-0.2-1.4-0.6-1.9c-0.4-0.5-0.9-0.8-1.5-0.8h-2.1V13.4z
	 M76.6,23.9h2.1c0.6,0,1.1-0.3,1.5-0.8c0.4-0.5,0.6-1.1,0.6-1.9v-2.6c0-1.7-0.7-2.6-2.1-2.6h-2.1V23.9z"/>
<path fill="#808080" d="M105.9,26.5V20c0-3.1,1.4-4.8,4.2-5.2c-2.8-0.4-4.2-2.2-4.2-5.2V2.9h4.2v7.9c0,0.7,0.2,1.3,0.6,1.8
	c0.4,0.5,0.9,0.8,1.5,0.8c0.6,0,1.1-0.3,1.5-0.8c0.4-0.5,0.6-1.1,0.6-1.8V2.9h4.2v6.5c0,3.1-1.4,4.8-4.2,5.2
	c2.8,0.4,4.2,2.2,4.2,5.2v6.5h-4.2v-7.9c0-0.7-0.2-1.3-0.6-1.8c-0.4-0.5-0.9-0.8-1.5-0.8c-0.6,0-1.1,0.3-1.5,0.8
	c-0.4,0.5-0.6,1.1-0.6,1.8v7.9H105.9z"/>
<g>
	<path fill="#808080" d="M103.2,15.1c0,3.1,0,6.1,0,9.2c0,0.2,0,0.5,0,0.7c0,1-0.5,1.5-1.5,1.5c-0.6,0-1.3,0-1.9,0
		c-3.5,0-7.1,0-10.6,0c-0.3,0-0.5,0-0.8,0c-0.7-0.1-1.1-0.5-1.2-1.1c0-0.3,0-0.6,0-0.9c0-6.3,0-12.5,0-18.8c0-0.1,0-0.2,0-0.3
		c0-1.4,0.5-1.8,1.8-1.8c4.1,0,8.2,0,12.3,0c0.1,0,0.1,0,0.2,0c1.1,0,1.6,0.5,1.6,1.6C103.2,8.5,103.2,11.8,103.2,15.1z M101.4,18.6
		c0-3.5-2.8-6.3-6.2-6.3c-3.4,0-6.3,2.8-6.3,6.2c0,3.4,2.8,6.3,6.2,6.3C98.6,24.9,101.4,22.1,101.4,18.6z M92.6,8.3
		c0,1.5,1.2,2.6,2.6,2.6c1.4,0,2.5-1.2,2.6-2.6c0-1.4-1.2-2.6-2.6-2.6C93.7,5.7,92.6,6.8,92.6,8.3z M88.8,6.2c0.5,0,0.9-0.5,0.9-0.9
		c0-0.5-0.4-0.9-0.9-0.9c-0.5,0-1,0.5-0.9,1C87.9,5.8,88.4,6.2,88.8,6.2z M102.3,5.3c0-0.5-0.4-0.9-0.9-0.9c-0.5,0-1,0.5-0.9,1
		c0,0.5,0.5,0.9,0.9,0.9C101.9,6.2,102.3,5.8,102.3,5.3z M89.7,24.8c0-0.5-0.4-0.9-0.9-0.9c-0.5,0-0.9,0.4-1,0.9
		c0,0.5,0.4,0.9,0.9,1C89.2,25.7,89.7,25.3,89.7,24.8z M102.3,24.9c0-0.5-0.4-0.9-0.9-0.9c-0.5,0-0.9,0.4-1,0.9c0,0.5,0.4,0.9,0.9,1
		C101.9,25.8,102.3,25.3,102.3,24.9z"/>
	<path fill="#808080" d="M100,18.6c0,2.7-2.2,4.8-4.8,4.8c-2.7,0-4.8-2.2-4.8-4.9c0-2.7,2.2-4.8,4.9-4.8
		C97.9,13.8,100,15.9,100,18.6z M95.2,17.2c-0.8,0-1.4,0.6-1.4,1.4c0,0.8,0.7,1.5,1.5,1.5c0.8,0,1.4-0.6,1.4-1.4
		C96.6,17.8,96,17.2,95.2,17.2z"/>
	<path fill="#808080" d="M96.4,8.2c0,0.6-0.5,1.2-1.2,1.2c-0.6,0-1.2-0.5-1.2-1.2c0-0.6,0.5-1.1,1.1-1.2C95.8,7.1,96.4,7.6,96.4,8.2
		z"/>
</g>
<g>
</g>
<g>
</g>
<g>
</g>
<g>
</g>
<g>
</g>
<g>
</g>
<g>
</g>
<g>
</g>
<g>
</g>
<g>
</g>
<g>
</g>
<g>
</g>
<g>
</g>
<g>
</g>
<g>
</g>
</svg>
