<?xml version="1.0" encoding="utf-8"?>
<!-- Generator: Adobe Illustrator 18.0.0, SVG Export Plug-In . SVG Version: 6.00 Build 0)  -->
<!DOCTYPE svg PUBLIC "-//W3C//DTD SVG 1.1//EN" "http://www.w3.org/Graphics/SVG/1.1/DTD/svg11.dtd">
<svg version="1.1" id="Layer_1" xmlns="http://www.w3.org/2000/svg" xmlns:xlink="http://www.w3.org/1999/xlink" x="0px" y="0px"
	 viewBox="0 0 50 50" enable-background="new 0 0 50 50" xml:space="preserve">
<g>
	<path fill="#8BC540" d="M9.8,22.7c1.3,0,2.4,0,3.5,0c2,0.1,2.8,0.9,2.8,2.9c0,3.3,0,6.7,0,10c0,1.8-0.8,2.6-2.6,2.7
		c-1.4,0-2.9,0-4.3,0c-1.7,0-2.7-0.8-2.7-2.5c0-5-0.1-10,0.4-14.9c1-8.9,8.9-15.6,17.9-15.9c10.2-0.3,18.6,7.7,19,18
		c0.2,4.2,0.1,8.4,0,12.6c0,2-0.8,2.7-2.8,2.7c-1.4,0-2.9,0-4.3,0c-1.6,0-2.4-0.8-2.5-2.5c-0.1-3.5-0.1-7,0-10.6
		c0-1.7,0.9-2.5,2.6-2.6c0.7,0,1.3,0,2,0c0.6,0,1.2,0,1.8,0c0.5-6.9-6.7-14.2-14.1-14.7C16.3,7.4,10,15.9,9.8,22.7z"/>
	<path fill="#8BC540" d="M4.7,34.5c-1-0.6-1.7-1-2.5-1.5c0-0.9,0-1.9,0-2.8c0-2.2,0-2.2,2.4-3.2C4.8,29.4,4.7,31.8,4.7,34.5z"/>
	<path fill="#8BC540" d="M45.9,34.2c0-0.7,0-1.3,0-1.9c0-1.7,0-3.4,0-5.1c2,0.4,2.3,0.7,2.3,2.3c0,0.5-0.1,1.1,0,1.6
		C48.5,32.8,47.8,33.8,45.9,34.2z"/>
</g>
<g>
</g>
<g>
</g>
<g>
</g>
<g>
</g>
<g>
</g>
<g>
</g>
<g>
</g>
<g>
</g>
<g>
</g>
<g>
</g>
<g>
</g>
<g>
</g>
<g>
</g>
<g>
</g>
<g>
</g>
</svg>
