<?xml version="1.0" encoding="utf-8"?>
<!-- Generator: Adobe Illustrator 18.0.0, SVG Export Plug-In . SVG Version: 6.00 Build 0)  -->
<!DOCTYPE svg PUBLIC "-//W3C//DTD SVG 1.1//EN" "http://www.w3.org/Graphics/SVG/1.1/DTD/svg11.dtd">
<svg version="1.1" id="Layer_1" xmlns="http://www.w3.org/2000/svg" xmlns:xlink="http://www.w3.org/1999/xlink" x="0px" y="0px"
	 viewBox="0 0 50 50" enable-background="new 0 0 50 50" xml:space="preserve">
<g id="Megaphone_4_">
	<g>
		<path fill="#8BC540" d="M27.7,17.7c-0.2,0-0.4,0-0.7,0.2L14.1,22c-0.1,0-0.2,0.1-0.3,0.2c-0.1,0.1-0.9,1-0.9,2.6
			c0,1.6,0.8,2.5,0.9,2.6c0.1,0.1,0.2,0.1,0.3,0.2l2.3,0.7c0,0,0,0,0,0v2.8c0,1.2,0.9,2.1,2.1,2.1h3.5c1.2,0,2.1-0.9,2.1-2.1v-0.4
			l2.8,0.9c0.3,0.2,0.5,0.2,0.7,0.2h0c0.5,0,2.1,0,2.1-7C29.8,17.7,28.2,17.7,27.7,17.7z M22.8,30.4v0.7c0,0.4-0.3,0.7-0.7,0.7h-3.5
			c-0.4,0-0.7-0.3-0.7-0.7v-2.4l4.9,1.6C22.8,30.3,22.8,30.3,22.8,30.4z M26,29.8l-11.3-3.6c-0.1-0.2-0.4-0.7-0.4-1.5
			c0-0.8,0.3-1.3,0.4-1.5L26,19.7c-0.3,1-0.5,2.6-0.5,5.1C25.6,27.2,25.8,28.8,26,29.8z M27.7,30.2c-0.3-0.5-0.7-2-0.7-5.5
			c0-3.5,0.4-5,0.7-5.5c0.3,0.5,0.7,2,0.7,5.5C28.4,28.3,27.9,29.8,27.7,30.2z M31.3,30.7c0.8-1.7,1.3-3.8,1.3-5.9
			c0-2.1-0.4-4.2-1.3-5.9c-0.2-0.4-0.6-0.5-0.9-0.3c-0.4,0.2-0.5,0.6-0.3,0.9c0.7,1.6,1.1,3.4,1.1,5.3c0,1.9-0.4,3.7-1.1,5.3
			c-0.2,0.3,0,0.8,0.3,0.9c0.1,0,0.2,0.1,0.3,0.1C31,31.1,31.2,30.9,31.3,30.7z M31.9,15.8c-0.3-0.3-0.7-0.2-1,0.1
			c-0.3,0.3-0.2,0.7,0.1,1c1.9,1.6,3,4.7,3,7.9c0,3.2-1.2,6.3-3,7.9c-0.3,0.3-0.3,0.7-0.1,1c0.1,0.2,0.3,0.2,0.5,0.2
			c0.2,0,0.3-0.1,0.5-0.2c2.2-1.9,3.5-5.3,3.5-8.9C35.4,21.1,34.1,17.7,31.9,15.8z"/>
	</g>
</g>
<circle fill="none" stroke="#4D4D4D" stroke-miterlimit="10" cx="24.6" cy="24.7" r="21.6"/>
<g>
</g>
<g>
</g>
<g>
</g>
<g>
</g>
<g>
</g>
<g>
</g>
<g>
</g>
<g>
</g>
<g>
</g>
<g>
</g>
<g>
</g>
<g>
</g>
<g>
</g>
<g>
</g>
<g>
</g>
</svg>
