<?xml version="1.0" encoding="utf-8"?>
<!-- Generator: Adobe Illustrator 18.0.0, SVG Export Plug-In . SVG Version: 6.00 Build 0)  -->
<!DOCTYPE svg PUBLIC "-//W3C//DTD SVG 1.1//EN" "http://www.w3.org/Graphics/SVG/1.1/DTD/svg11.dtd">
<svg version="1.1" id="Layer_1" xmlns="http://www.w3.org/2000/svg" xmlns:xlink="http://www.w3.org/1999/xlink" x="0px" y="0px"
	 viewBox="0 0 20 20" enable-background="new 0 0 20 20" xml:space="preserve">
<g>
	<path fill="#B3B3B3" d="M-71.5,1c-2.4,0-4.7,0.9-6.4,2.6c-1.7,1.7-2.6,4-2.6,6.4s0.9,4.7,2.6,6.4c1.7,1.7,4,2.6,6.4,2.6
		s4.7-0.9,6.4-2.6c1.7-1.7,2.6-4,2.6-6.4s-0.9-4.7-2.6-6.4C-66.9,1.9-69.1,1-71.5,1z M-66,15.6c-1.5,1.5-3.5,2.3-5.6,2.3
		c-2.1,0-4.1-0.8-5.6-2.3c-1.5-1.5-2.3-3.5-2.3-5.6s0.8-4.1,2.3-5.6c1.5-1.5,3.5-2.3,5.6-2.3c2.1,0,4.1,0.8,5.6,2.3
		c1.5,1.5,2.3,3.5,2.3,5.6S-64.5,14.1-66,15.6z"/>
	<path fill="#B3B3B3" d="M-68.7,9.6l-3.9-3.1c-0.2-0.1-0.4-0.2-0.6-0.1c-0.2,0.1-0.3,0.3-0.3,0.5v6.2c0,0.2,0.1,0.4,0.3,0.5
		c0.1,0,0.2,0.1,0.2,0.1c0.1,0,0.2,0,0.3-0.1l3.9-3.1c0.1-0.1,0.2-0.3,0.2-0.4S-68.5,9.7-68.7,9.6z M-72.4,11.9V8.1l2.5,1.9
		L-72.4,11.9z"/>
</g>
<g>
	<path fill="#B3B3B3" d="M86.8,6.9c-0.3,0-0.6,0.3-0.6,0.6v5.1c0,0.3,0.3,0.6,0.6,0.6s0.6-0.3,0.6-0.6V7.5
		C87.3,7.2,87.1,6.9,86.8,6.9z"/>
	<path fill="#B3B3B3" d="M91.3,6.9c-0.3,0-0.6,0.3-0.6,0.6v5.1c0,0.3,0.3,0.6,0.6,0.6s0.6-0.3,0.6-0.6V7.5
		C91.8,7.2,91.6,6.9,91.3,6.9z"/>
	<path fill="#B3B3B3" d="M89,1c-2.4,0-4.7,0.9-6.4,2.6C81,5.3,80,7.6,80,10s0.9,4.7,2.6,6.4c1.7,1.7,4,2.6,6.4,2.6s4.7-0.9,6.4-2.6
		c1.7-1.7,2.6-4,2.6-6.4s-0.9-4.7-2.6-6.4C93.7,1.9,91.4,1,89,1z M94.6,15.6c-1.5,1.5-3.5,2.3-5.6,2.3c-2.1,0-4.1-0.8-5.6-2.3
		c-1.5-1.5-2.3-3.5-2.3-5.6s0.8-4.1,2.3-5.6c1.5-1.5,3.5-2.3,5.6-2.3c2.1,0,4.1,0.8,5.6,2.3c1.5,1.5,2.3,3.5,2.3,5.6
		S96.1,14.1,94.6,15.6z"/>
</g>
<g>
	<path fill="#B3B3B3" d="M49.7,1c-2.4,0-4.7,0.9-6.4,2.6c-1.7,1.7-2.6,4-2.6,6.4s0.9,4.7,2.6,6.4c1.7,1.7,4,2.6,6.4,2.6
		c2.4,0,4.7-0.9,6.4-2.6c1.7-1.7,2.6-4,2.6-6.4s-0.9-4.7-2.6-6.4C54.4,1.9,52.1,1,49.7,1z M55.3,15.6c-1.5,1.5-3.5,2.3-5.6,2.3
		s-4.1-0.8-5.6-2.3c-1.5-1.5-2.3-3.5-2.3-5.6s0.8-4.1,2.3-5.6c1.5-1.5,3.5-2.3,5.6-2.3s4.1,0.8,5.6,2.3c1.5,1.5,2.3,3.5,2.3,5.6
		S56.8,14.1,55.3,15.6z"/>
	<path fill="#B3B3B3" d="M55.1,9.6l-3.9-3.1c-0.2-0.1-0.4-0.2-0.6-0.1c-0.2,0.1-0.3,0.3-0.3,0.5v6.2c0,0.2,0.1,0.4,0.3,0.5
		c0.1,0,0.2,0.1,0.2,0.1c0.1,0,0.2,0,0.3-0.1l3.9-3.1c0.1-0.1,0.2-0.3,0.2-0.4S55.3,9.7,55.1,9.6z M51.4,11.9V8.1l2.5,1.9L51.4,11.9
		z"/>
	<path fill="#B3B3B3" d="M49.5,9.6l-3.9-3.1c-0.2-0.1-0.4-0.2-0.6-0.1c-0.2,0.1-0.3,0.3-0.3,0.5v6.2c0,0.2,0.1,0.4,0.3,0.5
		c0.1,0,0.2,0.1,0.2,0.1c0.1,0,0.2,0,0.3-0.1l3.9-3.1c0.1-0.1,0.2-0.3,0.2-0.4S49.6,9.7,49.5,9.6z M45.8,11.9V8.1l2.5,1.9L45.8,11.9
		z"/>
</g>
<g>
	<path fill="#B3B3B3" d="M-28.9,19c2.4,0,4.7-0.9,6.4-2.6c1.7-1.7,2.6-4,2.6-6.4s-0.9-4.7-2.6-6.4c-1.7-1.7-4-2.6-6.4-2.6
		c-2.4,0-4.7,0.9-6.4,2.6c-1.7,1.7-2.6,4-2.6,6.4s0.9,4.7,2.6,6.4C-33.6,18.1-31.3,19-28.9,19z M-34.5,4.4c1.5-1.5,3.5-2.3,5.6-2.3
		s4.1,0.8,5.6,2.3C-21.9,5.9-21,7.9-21,10s-0.8,4.1-2.3,5.6c-1.5,1.5-3.5,2.3-5.6,2.3s-4.1-0.8-5.6-2.3c-1.5-1.5-2.3-3.5-2.3-5.6
		S-36,5.9-34.5,4.4z"/>
	<path fill="#B3B3B3" d="M-34.3,10.4l3.9,3.1c0.2,0.1,0.4,0.2,0.6,0.1c0.2-0.1,0.3-0.3,0.3-0.5V6.9c0-0.2-0.1-0.4-0.3-0.5
		c-0.1,0-0.2-0.1-0.2-0.1c-0.1,0-0.2,0-0.3,0.1l-3.9,3.1c-0.1,0.1-0.2,0.3-0.2,0.4S-34.5,10.3-34.3,10.4z M-30.6,8.1v3.9l-2.5-1.9
		L-30.6,8.1z"/>
	<path fill="#B3B3B3" d="M-28.7,10.4l3.9,3.1c0.2,0.1,0.4,0.2,0.6,0.1c0.2-0.1,0.3-0.3,0.3-0.5V6.9c0-0.2-0.1-0.4-0.3-0.5
		c-0.1,0-0.2-0.1-0.2-0.1c-0.1,0-0.2,0-0.3,0.1l-3.9,3.1c-0.1,0.1-0.2,0.3-0.2,0.4S-28.8,10.3-28.7,10.4z M-25,8.1v3.9l-2.5-1.9
		L-25,8.1z"/>
</g>
<polygon fill="#8BC540" stroke="#8BC540" stroke-width="2" stroke-linecap="round" stroke-linejoin="round" stroke-miterlimit="10" points="
	7.2,4.8 7.2,15.8 14.2,10 "/>
<rect x="-8.5" y="39" fill="#8BC540" width="2" height="20"/>
<rect x="1.1" y="39" fill="#8BC540" stroke="#8BC540" stroke-width="2" stroke-linecap="round" stroke-linejoin="round" stroke-miterlimit="10" width="4.4" height="20"/>
<g>
</g>
<g>
</g>
<g>
</g>
<g>
</g>
<g>
</g>
<g>
</g>
<g>
</g>
<g>
</g>
<g>
</g>
<g>
</g>
<g>
</g>
<g>
</g>
<g>
</g>
<g>
</g>
<g>
</g>
</svg>
