<?xml version="1.0" encoding="utf-8"?>
<!-- Generator: Adobe Illustrator 18.0.0, SVG Export Plug-In . SVG Version: 6.00 Build 0)  -->
<!DOCTYPE svg PUBLIC "-//W3C//DTD SVG 1.1//EN" "http://www.w3.org/Graphics/SVG/1.1/DTD/svg11.dtd">
<svg version="1.1" id="Layer_1" xmlns="http://www.w3.org/2000/svg" xmlns:xlink="http://www.w3.org/1999/xlink" x="0px" y="0px"
	 viewBox="0 0 70 10" enable-background="new 0 0 70 10" xml:space="preserve">
<polygon fill="#8CC63F" points="6.8,0.4 7.9,3.9 11.6,3.9 8.6,6.1 9.7,9.6 6.8,7.4 3.8,9.6 5,6.1 1.9,3.9 5.6,3.9 "/>
<polygon fill="#8CC63F" points="20.7,0.4 21.9,3.9 25.6,3.9 22.5,6.1 23.7,9.6 20.7,7.4 17.8,9.6 18.9,6.1 15.9,3.9 19.6,3.9 "/>
<polygon fill="#8CC63F" points="34.7,0.4 35.8,3.9 39.5,3.9 36.5,6.1 37.7,9.6 34.7,7.4 31.7,9.6 32.9,6.1 29.9,3.9 33.6,3.9 "/>
<polygon fill="#4D4D4D" points="48.7,0.4 49.8,3.9 53.5,3.9 50.5,6.1 51.7,9.6 48.7,7.4 45.7,9.6 46.9,6.1 43.9,3.9 47.6,3.9 "/>
<polygon fill="#4D4D4D" points="62.7,0.4 63.8,3.9 67.5,3.9 64.5,6.1 65.6,9.6 62.7,7.4 59.7,9.6 60.9,6.1 57.8,3.9 61.5,3.9 "/>
<polygon fill="#8CC63F" points="26.5,54.2 27.8,55.5 39.7,43.5 39.7,43.5 39.7,43.4 27.8,31.5 26.5,32.7 37.2,43.5 "/>
<path fill="#8CC63F" d="M32.1,21.5c-12.2,0-22,9.8-22,22c0,12.2,9.8,22,22,22c12.2,0,22-9.8,22-22S44.3,21.5,32.1,21.5z M32.1,63.3
	c-10.9,0-19.9-8.9-19.9-19.9s8.9-19.9,19.9-19.9S52,32.5,52,43.5S43.1,63.3,32.1,63.3z"/>
<g>
</g>
<g>
</g>
<g>
</g>
<g>
</g>
<g>
</g>
<g>
</g>
<g>
</g>
<g>
</g>
<g>
</g>
<g>
</g>
<g>
</g>
<g>
</g>
<g>
</g>
<g>
</g>
<g>
</g>
</svg>
